<svg class="main-svg" xmlns="http://www.w3.org/2000/svg" xmlns:xlink="http://www.w3.org/1999/xlink" width="1200" height="600" style="" viewBox="0 0 1200 600"><rect x="0" y="0" width="1200" height="600" style="fill: rgb(255, 255, 255); fill-opacity: 1;"/><defs id="defs-801dda"><g class="clips"><clipPath id="clip801ddaxyplot" class="plotclip"><rect width="988" height="470"/></clipPath><clipPath class="axesclip" id="clip801ddax"><rect x="80" y="0" width="988" height="600"/></clipPath><clipPath class="axesclip" id="clip801dday"><rect x="0" y="50" width="1200" height="470"/></clipPath><clipPath class="axesclip" id="clip801ddaxy"><rect x="80" y="50" width="988" height="470"/></clipPath></g><g class="gradients"/></defs><g class="bglayer"/><g class="layer-below"><g class="imagelayer"/><g class="shapelayer"/></g><g class="cartesianlayer"><g class="subplot xy"><g class="layer-subplot"><g class="shapelayer"/><g class="imagelayer"/></g><g class="gridlayer"><g class="x"><path class="xgrid crisp" transform="translate(184.82999999999998,0)" d="M0,50v470" style="stroke: rgb(238, 238, 238); stroke-opacity: 1; stroke-width: 1px;"/><path class="xgrid crisp" transform="translate(289.65,0)" d="M0,50v470" style="stroke: rgb(238, 238, 238); stroke-opacity: 1; stroke-width: 1px;"/><path class="xgrid crisp" transform="translate(394.48,0)" d="M0,50v470" style="stroke: rgb(238, 238, 238); stroke-opacity: 1; stroke-width: 1px;"/><path class="xgrid crisp" transform="translate(499.31,0)" d="M0,50v470" style="stroke: rgb(238, 238, 238); stroke-opacity: 1; stroke-width: 1px;"/><path class="xgrid crisp" transform="translate(604.14,0)" d="M0,50v470" style="stroke: rgb(238, 238, 238); stroke-opacity: 1; stroke-width: 1px;"/><path class="xgrid crisp" transform="translate(708.96,0)" d="M0,50v470" style="stroke: rgb(238, 238, 238); stroke-opacity: 1; stroke-width: 1px;"/><path class="xgrid crisp" transform="translate(813.79,0)" d="M0,50v470" style="stroke: rgb(238, 238, 238); stroke-opacity: 1; stroke-width: 1px;"/><path class="xgrid crisp" transform="translate(918.62,0)" d="M0,50v470" style="stroke: rgb(238, 238, 238); stroke-opacity: 1; stroke-width: 1px;"/><path class="xgrid crisp" transform="translate(1023.45,0)" d="M0,50v470" style="stroke: rgb(238, 238, 238); stroke-opacity: 1; stroke-width: 1px;"/></g><g class="y"><path class="ygrid crisp" transform="translate(0,481.04)" d="M80,0h988" style="stroke: rgb(238, 238, 238); stroke-opacity: 1; stroke-width: 1px;"/><path class="ygrid crisp" transform="translate(0,411.68)" d="M80,0h988" style="stroke: rgb(238, 238, 238); stroke-opacity: 1; stroke-width: 1px;"/><path class="ygrid crisp" transform="translate(0,342.32)" d="M80,0h988" style="stroke: rgb(238, 238, 238); stroke-opacity: 1; stroke-width: 1px;"/><path class="ygrid crisp" transform="translate(0,272.95)" d="M80,0h988" style="stroke: rgb(238, 238, 238); stroke-opacity: 1; stroke-width: 1px;"/><path class="ygrid crisp" transform="translate(0,203.59)" d="M80,0h988" style="stroke: rgb(238, 238, 238); stroke-opacity: 1; stroke-width: 1px;"/><path class="ygrid crisp" transform="translate(0,134.23000000000002)" d="M80,0h988" style="stroke: rgb(238, 238, 238); stroke-opacity: 1; stroke-width: 1px;"/><path class="ygrid crisp" transform="translate(0,64.87)" d="M80,0h988" style="stroke: rgb(238, 238, 238); stroke-opacity: 1; stroke-width: 1px;"/></g></g><g class="zerolinelayer"><path class="xzl zl crisp" transform="translate(80,0)" d="M0,50v470" style="stroke: rgb(68, 68, 68); stroke-opacity: 1; stroke-width: 1px;"/></g><path class="xlines-below"/><path class="ylines-below"/><g class="overlines-below"/><g class="xaxislayer-below"/><g class="yaxislayer-below"/><g class="overaxes-below"/><g class="plot" transform="translate(80, 50)" clip-path="url('#clip801ddaxyplot')"><g class="scatterlayer mlayer"><g class="trace scatter trace35ae670" style="stroke-miterlimit: 2; opacity: 1;"><g class="fills"/><g class="errorbars"/><g class="lines"><path class="js-line" d="M0,23.5L3.56,215.16L12.37,295.18L19.5,301.18L27.05,302.52L35.22,301.88L35.64,300.37L39.83,302.36L42.98,300.37L50.32,300.74L57.03,299.74L74.01,300.35L89.52,301.78L96.44,302.41L115.73,300.96L116.36,300.35L121.18,301.71L132.08,299.97L137.32,301.73L140.26,301.71L144.87,303.04L156.61,303.53L159.97,308.86L161.01,310.44L186.8,347.85L194.98,359.03L202.95,362.71L215.73,377.69L218.04,377.7L220.77,380.31L236.07,386.15L239.84,384.72L248.02,390.61L248.86,389.56L253.68,390.46L254.73,395.99L258.29,397.39L262.49,394.39L263.75,395.32L270.24,390.69L276.53,392.37L302.74,398.75L304,403.47L304.63,405.64L313.85,406.78L322.45,405.43L340.48,407.11L343.62,405.55L345.51,409.51L346.14,413.42L352.22,410.9L363.12,414.09L367.31,413.54L370.67,408.08L371.09,418.37L374.23,410.14L375.91,419.15L388.91,415.44L392.05,417.23L396.04,417.72L398.97,413.05L402.75,415.68L413.02,415.73L417.21,417.6L419.94,417.42L420.99,415.75L422.03,416.82L428.32,418.25L429.58,420.47L433.99,418.4L440.48,422.57L441.95,412.95L453.48,420.85L455.79,422.84L459.77,419.53L460.4,417.37L466.69,415.61L473.82,417.26L504.85,426.6L505.27,421.47L506.94,432.8L511.77,422.06L522.67,424.78L529.17,421.84L533.36,427.62L537.34,432.22L557.68,427.71L564.39,424.13L565.44,431.43L576.55,426.58L580.53,432.51L582.21,426.99L583.89,426.61L593.32,432.12L601.29,432.31L608,428.86L609.47,422.66L610.09,428.16L611.35,429.27L615.55,431.93L617.85,432.04L626.03,427.88L632.74,433.45L633.16,425.54L636.72,426.86L646.37,434.51L648.46,428.4L654.75,430.14L656.64,426.27L668.38,428.41L697.94,432.33L733.79,431.5L770.27,433.89L784.32,436.84L789.77,436.99L790.4,434.61L794.59,432.59L799.62,434.07L808.01,439.87L809.06,437.86L810.11,441.13L811.78,433.7L812.2,438.56L815.56,437.79L816.81,428.88L822.27,436.71L829.39,437.96L838.62,437.77L851.62,440.24L858.33,438.1L865.66,442.81L882.86,437.21L883.27,442.37L889.15,434.32L889.56,443.84L890.82,432.63L896.9,446.5L897.32,436.04L898.16,438.15L904.87,433.43L910.53,441.7L917.66,445.49L918.71,436.42L920.8,436.54L934.85,441.86" style="vector-effect: non-scaling-stroke; fill: none; stroke: rgb(237, 74, 123); stroke-opacity: 1; stroke-width: 1.5px; opacity: 1;"/></g><g class="points"/><g class="text"/></g><g class="trace scatter trace2f2e0b" style="stroke-miterlimit: 2; opacity: 1;"><g class="fills"/><g class="errorbars"/><g class="lines"/><g class="points"><path class="point" transform="translate(934.85,441.86)" d="M3,0A3,3 0 1,1 0,-3A3,3 0 0,1 3,0Z" style="opacity: 1; stroke-width: 0px; fill: rgb(237, 74, 123); fill-opacity: 1;"/></g><g class="text"/></g></g></g><g class="overplot"/><path class="xlines-above crisp" d="M0,0" style="fill: none;"/><path class="ylines-above crisp" d="M0,0" style="fill: none;"/><g class="overlines-above"/><g class="xaxislayer-above"><g class="xtick"><text text-anchor="middle" x="0" y="543" transform="translate(80,0)" style="font-family: 'Open Sans', verdana, arial, sans-serif; font-size: 12px; fill: rgb(32, 32, 32); fill-opacity: 1; white-space: pre;">0</text></g><g class="xtick"><text text-anchor="middle" x="0" y="543" transform="translate(184.82999999999998,0)" style="font-family: 'Open Sans', verdana, arial, sans-serif; font-size: 12px; fill: rgb(32, 32, 32); fill-opacity: 1; white-space: pre;">500</text></g><g class="xtick"><text text-anchor="middle" x="0" y="543" transform="translate(289.65,0)" style="font-family: 'Open Sans', verdana, arial, sans-serif; font-size: 12px; fill: rgb(32, 32, 32); fill-opacity: 1; white-space: pre;">1000</text></g><g class="xtick"><text text-anchor="middle" x="0" y="543" transform="translate(394.48,0)" style="font-family: 'Open Sans', verdana, arial, sans-serif; font-size: 12px; fill: rgb(32, 32, 32); fill-opacity: 1; white-space: pre;">1500</text></g><g class="xtick"><text text-anchor="middle" x="0" y="543" transform="translate(499.31,0)" style="font-family: 'Open Sans', verdana, arial, sans-serif; font-size: 12px; fill: rgb(32, 32, 32); fill-opacity: 1; white-space: pre;">2000</text></g><g class="xtick"><text text-anchor="middle" x="0" y="543" transform="translate(604.14,0)" style="font-family: 'Open Sans', verdana, arial, sans-serif; font-size: 12px; fill: rgb(32, 32, 32); fill-opacity: 1; white-space: pre;">2500</text></g><g class="xtick"><text text-anchor="middle" x="0" y="543" transform="translate(708.96,0)" style="font-family: 'Open Sans', verdana, arial, sans-serif; font-size: 12px; fill: rgb(32, 32, 32); fill-opacity: 1; white-space: pre;">3000</text></g><g class="xtick"><text text-anchor="middle" x="0" y="543" transform="translate(813.79,0)" style="font-family: 'Open Sans', verdana, arial, sans-serif; font-size: 12px; fill: rgb(32, 32, 32); fill-opacity: 1; white-space: pre;">3500</text></g><g class="xtick"><text text-anchor="middle" x="0" y="543" transform="translate(918.62,0)" style="font-family: 'Open Sans', verdana, arial, sans-serif; font-size: 12px; fill: rgb(32, 32, 32); fill-opacity: 1; white-space: pre;">4000</text></g><g class="xtick"><text text-anchor="middle" x="0" y="543" transform="translate(1023.45,0)" style="font-family: 'Open Sans', verdana, arial, sans-serif; font-size: 12px; fill: rgb(32, 32, 32); fill-opacity: 1; white-space: pre;">4500</text></g></g><g class="yaxislayer-above"><g class="ytick"><text text-anchor="end" x="69" y="4.199999999999999" transform="translate(0,481.04)" style="font-family: 'Open Sans', verdana, arial, sans-serif; font-size: 12px; fill: rgb(32, 32, 32); fill-opacity: 1; white-space: pre;">1</text></g><g class="ytick"><text text-anchor="end" x="69" y="4.199999999999999" transform="translate(0,411.68)" style="font-family: 'Open Sans', verdana, arial, sans-serif; font-size: 12px; fill: rgb(32, 32, 32); fill-opacity: 1; white-space: pre;">2</text></g><g class="ytick"><text text-anchor="end" x="69" y="4.199999999999999" transform="translate(0,342.32)" style="font-family: 'Open Sans', verdana, arial, sans-serif; font-size: 12px; fill: rgb(32, 32, 32); fill-opacity: 1; white-space: pre;">3</text></g><g class="ytick"><text text-anchor="end" x="69" y="4.199999999999999" transform="translate(0,272.95)" style="font-family: 'Open Sans', verdana, arial, sans-serif; font-size: 12px; fill: rgb(32, 32, 32); fill-opacity: 1; white-space: pre;">4</text></g><g class="ytick"><text text-anchor="end" x="69" y="4.199999999999999" transform="translate(0,203.59)" style="font-family: 'Open Sans', verdana, arial, sans-serif; font-size: 12px; fill: rgb(32, 32, 32); fill-opacity: 1; white-space: pre;">5</text></g><g class="ytick"><text text-anchor="end" x="69" y="4.199999999999999" transform="translate(0,134.23000000000002)" style="font-family: 'Open Sans', verdana, arial, sans-serif; font-size: 12px; fill: rgb(32, 32, 32); fill-opacity: 1; white-space: pre;">6</text></g><g class="ytick"><text text-anchor="end" x="69" y="4.199999999999999" transform="translate(0,64.87)" style="font-family: 'Open Sans', verdana, arial, sans-serif; font-size: 12px; fill: rgb(32, 32, 32); fill-opacity: 1; white-space: pre;">7</text></g></g><g class="overaxes-above"/></g></g><g class="polarlayer"/><g class="ternarylayer"/><g class="geolayer"/><g class="funnelarealayer"/><g class="pielayer"/><g class="treemaplayer"/><g class="sunburstlayer"/><g class="glimages"/><defs id="topdefs-801dda"><g class="clips"/><clipPath id="legend801dda"><rect width="100" height="29" x="0" y="0"/></clipPath></defs><g class="layer-above"><g class="imagelayer"/><g class="shapelayer"/></g><g class="infolayer"><g class="legend" pointer-events="all" transform="translate(1087.76, 50)"><rect class="bg" shape-rendering="crispEdges" style="stroke: rgb(68, 68, 68); stroke-opacity: 1; fill: rgb(255, 255, 255); fill-opacity: 1; stroke-width: 0px;" width="100" height="29" x="0" y="0"/><g class="scrollbox" transform="translate(0, 0)" clip-path="url('#legend801dda')"><g class="groups" transform="translate(0, 0)"><g class="traces" transform="translate(0, 14.5)" style="opacity: 1;"><text class="legendtext" text-anchor="start" x="40" y="4.680000000000001" style="font-family: 'Open Sans', verdana, arial, sans-serif; font-size: 12px; fill: rgb(68, 68, 68); fill-opacity: 1; white-space: pre;">train_loss</text><g class="layers" style="opacity: 1;"><g class="legendfill"/><g class="legendlines"><path class="js-line" d="M5,0h30" style="fill: none; stroke: rgb(237, 74, 123); stroke-opacity: 1; stroke-width: 1.5px;"/></g><g class="legendsymbols"><g class="legendpoints"/></g></g><rect class="legendtoggle" x="0" y="-9.5" width="94.609375" height="19" style="fill: rgb(0, 0, 0); fill-opacity: 0;"/></g></g></g><rect class="scrollbar" rx="20" ry="3" width="0" height="0" style="fill: rgb(128, 139, 164); fill-opacity: 1;" x="0" y="0"/></g><g class="g-gtitle"/><g class="g-xtitle"/><g class="g-ytitle"/></g></svg>