<svg viewBox="0 0 1324.8294677734375 400" xmlns="http://www.w3.org/2000/svg"><g><g><g><g><g><line x1="50" y1="378" x2="45" y2="378" style="visibility: inherit;" fill="rgb(0, 0, 0)" stroke="rgb(204, 204, 204)" stroke-width="1px"></line><line x1="50" y1="330.75" x2="45" y2="330.75" style="visibility: inherit;" fill="rgb(0, 0, 0)" stroke="rgb(204, 204, 204)" stroke-width="1px"></line><line x1="50" y1="283.5" x2="45" y2="283.5" style="visibility: inherit;" fill="rgb(0, 0, 0)" stroke="rgb(204, 204, 204)" stroke-width="1px"></line><line x1="50" y1="236.24999999999997" x2="45" y2="236.24999999999997" style="visibility: inherit;" fill="rgb(0, 0, 0)" stroke="rgb(204, 204, 204)" stroke-width="1px"></line><line x1="50" y1="188.99999999999997" x2="45" y2="188.99999999999997" style="visibility: inherit;" fill="rgb(0, 0, 0)" stroke="rgb(204, 204, 204)" stroke-width="1px"></line><line x1="50" y1="141.75" x2="45" y2="141.75" style="visibility: inherit;" fill="rgb(0, 0, 0)" stroke="rgb(204, 204, 204)" stroke-width="1px"></line><line x1="50" y1="94.5" x2="45" y2="94.5" style="visibility: inherit;" fill="rgb(0, 0, 0)" stroke="rgb(204, 204, 204)" stroke-width="1px"></line><line x1="50" y1="47.25" x2="45" y2="47.25" style="visibility: inherit;" fill="rgb(0, 0, 0)" stroke="rgb(204, 204, 204)" stroke-width="1px"></line><line x1="50" y1="0" x2="45" y2="0" style="visibility: inherit;" fill="rgb(0, 0, 0)" stroke="rgb(204, 204, 204)" stroke-width="1px"></line></g><g transform="translate(40, 0)"><text x="0" y="378" dx="0em" dy="0.3em" style="text-anchor: end; visibility: hidden; font-family: &quot;Helvetica Neue&quot;, sans-serif; font-size: 12px; font-weight: 200;" fill="rgb(50, 49, 63)" stroke="none" stroke-width="1px">-0.1</text><text x="0" y="330.75" dx="0em" dy="0.3em" style="text-anchor: end; visibility: inherit; font-family: &quot;Helvetica Neue&quot;, sans-serif; font-size: 12px; font-weight: 200;" fill="rgb(50, 49, 63)" stroke="none" stroke-width="1px">0</text><text x="0" y="283.5" dx="0em" dy="0.3em" style="text-anchor: end; visibility: inherit; font-family: &quot;Helvetica Neue&quot;, sans-serif; font-size: 12px; font-weight: 200;" fill="rgb(50, 49, 63)" stroke="none" stroke-width="1px">0.1</text><text x="0" y="236.24999999999997" dx="0em" dy="0.3em" style="text-anchor: end; visibility: inherit; font-family: &quot;Helvetica Neue&quot;, sans-serif; font-size: 12px; font-weight: 200;" fill="rgb(50, 49, 63)" stroke="none" stroke-width="1px">0.2</text><text x="0" y="188.99999999999997" dx="0em" dy="0.3em" style="text-anchor: end; visibility: inherit; font-family: &quot;Helvetica Neue&quot;, sans-serif; font-size: 12px; font-weight: 200;" fill="rgb(50, 49, 63)" stroke="none" stroke-width="1px">0.3</text><text x="0" y="141.75" dx="0em" dy="0.3em" style="text-anchor: end; visibility: inherit; font-family: &quot;Helvetica Neue&quot;, sans-serif; font-size: 12px; font-weight: 200;" fill="rgb(50, 49, 63)" stroke="none" stroke-width="1px">0.4</text><text x="0" y="94.5" dx="0em" dy="0.3em" style="text-anchor: end; visibility: inherit; font-family: &quot;Helvetica Neue&quot;, sans-serif; font-size: 12px; font-weight: 200;" fill="rgb(50, 49, 63)" stroke="none" stroke-width="1px">0.5</text><text x="0" y="47.25" dx="0em" dy="0.3em" style="text-anchor: end; visibility: inherit; font-family: &quot;Helvetica Neue&quot;, sans-serif; font-size: 12px; font-weight: 200;" fill="rgb(50, 49, 63)" stroke="none" stroke-width="1px">0.6</text><text x="0" y="0" dx="0em" dy="0.3em" style="text-anchor: end; visibility: hidden; font-family: &quot;Helvetica Neue&quot;, sans-serif; font-size: 12px; font-weight: 200;" fill="rgb(50, 49, 63)" stroke="none" stroke-width="1px">0.7</text></g><line x1="50" y1="0" x2="50" y2="378" fill="rgb(0, 0, 0)" stroke="rgb(204, 204, 204)" stroke-width="1px"></line></g></g><g transform="translate(50, 0)" clip-path="url(#clip_0)"><clipPath id="clip_0"><rect width="1274" height="377"></rect></clipPath><g><g><g><line x1="0" y1="0" x2="0" y2="378" fill="rgb(0, 0, 0)" stroke="rgb(60, 60, 60)" stroke-width="1px" opacity="0.25"></line><line x1="91.0592857142857" y1="0" x2="91.0592857142857" y2="378" fill="rgb(0, 0, 0)" stroke="rgb(60, 60, 60)" stroke-width="1px" opacity="0.25"></line><line x1="182.1185714285714" y1="0" x2="182.1185714285714" y2="378" fill="rgb(0, 0, 0)" stroke="rgb(60, 60, 60)" stroke-width="1px" opacity="0.25"></line><line x1="273.17785714285714" y1="0" x2="273.17785714285714" y2="378" fill="rgb(0, 0, 0)" stroke="rgb(60, 60, 60)" stroke-width="1px" opacity="0.25"></line><line x1="364.2371428571428" y1="0" x2="364.2371428571428" y2="378" fill="rgb(0, 0, 0)" stroke="rgb(60, 60, 60)" stroke-width="1px" opacity="0.25"></line><line x1="455.2964285714286" y1="0" x2="455.2964285714286" y2="378" fill="rgb(0, 0, 0)" stroke="rgb(60, 60, 60)" stroke-width="1px" opacity="0.25"></line><line x1="546.3557142857143" y1="0" x2="546.3557142857143" y2="378" fill="rgb(0, 0, 0)" stroke="rgb(60, 60, 60)" stroke-width="1px" opacity="0.25"></line><line x1="637.415" y1="0" x2="637.415" y2="378" fill="rgb(0, 0, 0)" stroke="rgb(60, 60, 60)" stroke-width="1px" opacity="0.25"></line><line x1="728.4742857142857" y1="0" x2="728.4742857142857" y2="378" fill="rgb(0, 0, 0)" stroke="rgb(60, 60, 60)" stroke-width="1px" opacity="0.25"></line><line x1="819.5335714285715" y1="0" x2="819.5335714285715" y2="378" fill="rgb(0, 0, 0)" stroke="rgb(60, 60, 60)" stroke-width="1px" opacity="0.25"></line><line x1="910.5928571428572" y1="0" x2="910.5928571428572" y2="378" fill="rgb(0, 0, 0)" stroke="rgb(60, 60, 60)" stroke-width="1px" opacity="0.25"></line><line x1="1001.6521428571427" y1="0" x2="1001.6521428571427" y2="378" fill="rgb(0, 0, 0)" stroke="rgb(60, 60, 60)" stroke-width="1px" opacity="0.25"></line><line x1="1092.7114285714285" y1="0" x2="1092.7114285714285" y2="378" fill="rgb(0, 0, 0)" stroke="rgb(60, 60, 60)" stroke-width="1px" opacity="0.25"></line><line x1="1183.7707142857143" y1="0" x2="1183.7707142857143" y2="378" fill="rgb(0, 0, 0)" stroke="rgb(60, 60, 60)" stroke-width="1px" opacity="0.25"></line><line x1="1274.83" y1="0" x2="1274.83" y2="378" fill="rgb(0, 0, 0)" stroke="rgb(60, 60, 60)" stroke-width="1px" opacity="0.25"></line></g><g><line x1="0" y1="378" x2="1274.83" y2="378" fill="rgb(0, 0, 0)" stroke="rgb(60, 60, 60)" stroke-width="1px" opacity="0.25"></line><line x1="0" y1="330.75" x2="1274.83" y2="330.75" fill="rgb(0, 0, 0)" stroke="rgb(60, 60, 60)" stroke-width="1px" opacity="0.25"></line><line x1="0" y1="283.5" x2="1274.83" y2="283.5" fill="rgb(0, 0, 0)" stroke="rgb(60, 60, 60)" stroke-width="1px" opacity="0.25"></line><line x1="0" y1="236.24999999999997" x2="1274.83" y2="236.24999999999997" fill="rgb(0, 0, 0)" stroke="rgb(60, 60, 60)" stroke-width="1px" opacity="0.25"></line><line x1="0" y1="188.99999999999997" x2="1274.83" y2="188.99999999999997" fill="rgb(0, 0, 0)" stroke="rgb(60, 60, 60)" stroke-width="1px" opacity="0.25"></line><line x1="0" y1="141.75" x2="1274.83" y2="141.75" fill="rgb(0, 0, 0)" stroke="rgb(60, 60, 60)" stroke-width="1px" opacity="0.25"></line><line x1="0" y1="94.5" x2="1274.83" y2="94.5" fill="rgb(0, 0, 0)" stroke="rgb(60, 60, 60)" stroke-width="1px" opacity="0.25"></line><line x1="0" y1="47.25" x2="1274.83" y2="47.25" fill="rgb(0, 0, 0)" stroke="rgb(60, 60, 60)" stroke-width="1px" opacity="0.25"></line><line x1="0" y1="0" x2="1274.83" y2="0" fill="rgb(0, 0, 0)" stroke="rgb(60, 60, 60)" stroke-width="1px" opacity="0.25"></line></g></g></g><g><g><line x1="0" y1="330.75" x2="1274.83" y2="330.75" fill="rgb(0, 0, 0)" stroke="rgb(153, 153, 153)" stroke-width="1.5px"></line></g></g><g><g><line x1="91.0592857142857" y1="0" x2="91.0592857142857" y2="378" fill="rgb(0, 0, 0)" stroke="rgb(153, 153, 153)" stroke-width="1.5px"></line></g></g><g><g><g><g><g><path stroke="rgb(0, 119, 187)" stroke-width="2px" d="M120.19825714285714,-2.2448353133701175L121.10884999999999,4.918479497383828L122.01944285714285,19.06158947994544L123.84062857142857,26.4043543067952L124.75122142857141,36.31352933398034L125.66181428571429,30.032906054462387L126.57240714285713,15.938057316234278L127.483,42.48334733157702L129.3041857142857,50.952952087913616L130.21477857142858,77.763994061571L131.1253714285714,58.39915006338617L132.0359642857143,45.72609533215825L132.94655714285713,44.43044636878187L133.85715,46.697701111661786L135.6783357142857,51.14631723095124L136.58892857142857,58.41331993985875L138.4101142857143,65.0489049174879L139.32070714285715,65.43726312036347L140.2313,75.77269759788015L141.14189285714284,56.30959376628226L142.05248571428572,55.09759141761339L142.96307857142855,51.67503709644399L144.78426428571427,62.320457953600624L145.69485714285713,80.25198983462718L146.60545,77.05877784079615L147.51604285714285,82.66511601917705L148.4266357142857,74.65350044197652L149.33722857142857,78.35235661522864L150.24782142857143,95.82558878813637L151.1584142857143,96.84859851929241L152.06900714285715,91.71520881612645L152.97959999999998,95.70598999118562L153.89019285714286,88.55560843620123L155.71137857142855,84.50323458000065L156.6219714285714,79.96220674207223L157.53256428571427,74.81785341555121L158.44315714285713,66.61333556445976L160.26434285714285,85.74199309034674L161.17493571428568,101.04533784439292L162.08552857142857,95.06673652440378L162.99612142857143,100.76927308148186L164.81730714285712,91.5712167138222L165.7279,89.57706303086053L167.5490857142857,92.50882201603753L168.45967857142855,110.35954389698327L169.37027142857144,110.75163588957201L170.28086428571427,114.70206707141523L171.19145714285713,107.41565073979928L172.10205,104.95026897462026L173.9232357142857,97.30926525039558L174.83382857142857,108.21957394148757L175.7444214285714,113.13348235288765L176.65501428571426,102.68698394059845L177.56560714285715,104.44606851196113L178.4762,103.54876219425097L179.38679285714284,101.77883569713526L181.20797857142858,93.96434832999762L182.1185714285714,97.64966078036815L183.02916428571427,107.8486568655598L183.93975714285713,115.46159379041359L184.85034999999996,123.30108553383451L185.76094285714285,127.99497978814665L186.6715357142857,117.04585650520454L187.58212857142854,123.50749833558157L189.4033142857143,101.68857050641873L190.31390714285715,112.75664422335922L191.22449999999998,99.25206805123503L192.13509285714284,105.63700477989681L193.95627857142856,94.41989313788514L194.86687142857141,92.81030326621112L195.77746428571427,91.16003726444467L196.68805714285713,84.37694509340423L197.59865,68.19866220660862L198.50924285714285,99.9193687946073L199.41983571428568,108.12374284925886L200.33042857142857,114.60302027501365L201.24102142857143,124.85144701860958L202.15161428571426,130.02661979354988L203.06220714285712,151.57816534732322L203.9728,133.83614619669046L204.88339285714287,132.89185412583782L205.7939857142857,129.52129489694855L206.70457857142856,131.5976786286522L208.52576428571427,123.69368684118325L209.43635714285713,126.3289560367187L212.1681357142857,138.05690540608884L213.07872857142857,130.4146011575289L214.89991428571426,144.21967206622523L215.81050714285715,142.81759474411825L217.63169285714284,135.66012109360227L219.45287857142858,125.30762671256738L220.36347142857142,114.59493060007497L221.27406428571427,122.4247387176442L222.18465714285713,120.38468628678845L223.09524999999996,122.98163430425001L224.00584285714285,122.20288318116948L225.82702857142854,128.26452004742313L226.7376214285714,125.8659887363415L227.6482142857143,122.99211852847941L228.55880714285715,126.00334746300823L230.37999285714284,120.8699132541397L231.29058571428573,122.23791952965132L232.20117857142856,120.52040272377417L234.02236428571427,125.87209499730156L234.9329571428571,123.75697711022787L235.84355,128.9213826472288L237.66473571428568,124.94277849881206L238.57532857142854,128.67723559193823L240.3965142857143,120.10845329077847L241.30710714285712,136.31366880960348L243.12829285714287,133.06923538581782L244.0388857142857,131.13770459971576L244.94947857142856,128.63442166377158L246.77066428571425,126.37720514374402L247.68125714285713,132.0251748087253L248.59185,122.65246960057291L250.41303571428568,122.92389878948615L251.32362857142857,131.76996488761952L252.23422142857143,118.62541736598041L253.14481428571426,114.1005631949617L254.966,111.19705304301465L255.87659285714284,131.0849056708615L256.7871857142857,127.95460017727618L257.69777857142856,137.8124200117994L258.6083714285714,139.1399414606338L259.5189642857143,134.73368713661696L260.42955714285716,139.77155853751105L261.34015,141.84430865909337L262.2507428571428,134.2351964501481L264.0719285714286,133.64684535193092L264.98252142857143,129.254314459131L267.7143,143.26660101817006L271.3566714285714,136.38018103364675L272.2672642857143,142.6567698712562L274.08844999999997,141.97823309871043L274.99904285714285,138.7579852758198L275.90963571428574,141.15670506467512L277.7308214285714,138.07106347268873L278.6414142857143,131.33384301892553L279.5520071428571,136.4829241790273L280.4626,139.55767168747767L281.37319285714284,146.36169265000453L284.10497142857145,142.4826517301108L285.0155642857143,138.4738112328831L285.9261571428571,135.16833800902268L286.83675,142.66814244884432L287.7473428571428,152.7077987259518L288.6579357142857,142.18719138299767L289.56852857142854,150.61417008397189L290.47912142857143,161.51520027492765L291.38971428571426,146.11941594943L292.30030714285715,146.4404266003644L293.2109,145.53317575000975L294.1214928571428,144.9827250918343L295.9426785714286,146.63382556322784L296.8532714285714,155.3579413848136L297.76386428571425,134.8511045132288L299.58504999999997,145.75866244758413L300.49564285714285,159.0253856511429L301.4062357142857,146.67132416555376L302.3168285714286,169.13737256639652L303.2274214285714,163.56253887601767L304.1380142857143,149.22487350337545L305.0486071428571,154.12860456128624L306.86979285714284,142.37041035902325L307.7803857142857,132.10325618154897L309.6015714285714,133.24080218414719L310.5121642857143,147.100860402228L311.4227571428571,156.2041918070564L313.2439428571428,159.74662673064762L314.1545357142857,154.94178449862417L315.06512857142855,143.84106736632114L315.97572142857143,153.3624764934297L316.88631428571426,155.40324130386804L317.7969071428571,149.9880637033623L318.7075,144.9247911634351L319.61809285714287,122.75411628856094L320.5286857142857,132.4995461176266L321.4392785714286,152.36939945044693L322.34987142857136,154.72723699344743L323.26046428571425,150.56231498559444L324.17105714285714,144.3857611289032L325.99224285714286,160.4866487604623L326.90283571428574,165.54190195335414L327.8134285714285,174.48369774063508L328.7240214285714,167.52786195778893L330.5452071428571,159.77018841805483L331.4558,153.40576295079245L332.36639285714284,151.72248615039257L334.1875785714285,163.3824597967438L336.0087642857143,157.12189307646588L337.82995,157.29688718221567L338.7405428571429,139.2178326088308L339.65113571428566,142.6702732168507L340.56172857142855,148.35963226097056L341.4723214285714,147.07827979169622L343.29350714285715,156.13280187155206L344.2041,158.2581252938831L345.11469285714287,163.83326464213872L346.02528571428564,169.2452338416454L346.93587857142853,169.42182167643765L347.8464714285714,142.01260356470615L348.75706428571425,144.2220405123512L349.66765714285714,151.58780671250105L354.2206214285714,149.7735517030435L356.0418071428571,132.85122258099776L356.9524,147.91008022804772L358.7735857142857,147.74885568249056L359.68417857142856,156.39365551607506L360.5947714285714,163.61618802390515L361.5053642857143,166.63286413813842L362.41595714285717,160.5692967418743L363.32654999999994,163.12196722292376L364.2371428571428,168.40269341268225L365.14773571428566,165.754156453598L366.05832857142855,171.71186922382623L366.96892142857143,155.5279373907525L367.87951428571427,150.9484166850733L370.6112928571428,157.3732427209668L371.5218857142857,159.7852646559508L372.43247857142853,159.78525573313422L373.3430714285714,164.1782862979185L374.2536642857143,159.98698576319288L376.07484999999997,151.31177697794473L376.9854428571428,149.2960208488514L377.8960357142857,154.61915535527527L378.8066285714286,167.98645502804553L379.7172214285714,176.21271904992363L380.6278142857143,167.53941348008695L381.53840714285707,160.00608610399L382.44899999999996,150.9826146083321L383.35959285714284,159.94861384136948L384.2701857142857,138.54517297687218L385.18077857142856,152.52152183498197L386.09137142857145,154.7764740398243L387.0019642857142,157.85106145207374L387.9125571428571,168.62294954576663L388.82314999999994,176.8681141765032L389.73374285714283,172.21355753130402L391.55492857142855,174.2625385820072L392.46552142857144,167.43463436360364L394.2867071428571,164.3468833422375L396.1078928571428,176.73751495812607L397.9290785714286,170.28089383562963L398.83967142857136,159.04106853795386L399.75026428571425,158.59315127964223L400.66085714285714,164.22395371696592L401.57144999999997,159.70045671642566L402.48204285714286,151.67505037057842L403.3926357142857,160.14911689918304L404.3032285714285,170.84023491478604L405.2138214285714,173.32192122302436L406.12441428571424,168.10959659434545L407.0350071428571,167.28578779350033L407.9456,182.13088501244965L408.85619285714284,186.49105189293735L409.76678571428573,182.49345946937862L410.6773785714285,172.45380685704984L411.5879714285714,158.1348335682037L412.4985642857143,168.49304385415806L413.4091571428571,173.7576199199682L414.31975,164.7598521367267L415.2303428571429,162.95862840149132L416.14093571428566,167.32781591733297L417.05152857142855,154.6373430831432L417.9621214285714,172.43127964396473L418.87271428571427,172.9249231246662L419.78330714285715,169.33692026302523L420.6939,169.34649989703482L421.6044928571429,166.5061653476905L422.51508571428565,158.15635753404803L423.42567857142853,162.97792867262189L424.3362714285714,171.65727569722543L425.24686428571425,164.6155277017558L426.15745714285714,176.48147511028077L427.9786428571428,173.2288262280394L428.8892357142857,181.7938300271374L430.7104214285714,180.57749200460563L431.6210142857143,177.62927434800415L432.5316071428571,172.06870469426127L433.4422,174.89110720738773L434.3527928571428,177.42033094516404L435.2633857142857,167.4008631905973L436.17397857142856,143.27381590015054L437.9951642857143,160.60898045901274L438.90575714285717,171.50227608206163L440.72694285714283,177.7666814024585L441.63753571428566,182.03564168187006L442.54812857142855,182.96929221851835L443.45872142857144,180.24091699423317L444.36931428571427,156.17127646030144L446.19049999999993,167.0793526293108L447.1010928571428,159.41218851335458L448.0116857142857,168.04162395791778L448.92227857142854,167.02553406832558L451.6540571428571,170.46965094493592L453.4752428571428,170.00161942891336L454.3858357142857,190.3721952441457L456.2070214285714,186.08753471393126L457.1176142857143,170.24179128896438L458.02820714285707,173.59749010855705L459.84939285714285,182.9757875779554L460.7599857142857,179.06879805799036L462.58117142857145,172.32612729832948L464.4023571428571,180.21559106567756L465.31294999999994,175.67710074936903L466.22354285714283,173.32034213039609L468.04472857142855,183.9141775708993L468.95532142857144,182.9373293126583L469.8659142857142,182.75617893367766L472.5976928571428,177.96699105995748L473.5082857142857,183.8507279592624L474.4188785714286,176.57374406682678L475.32947142857137,182.38699399129882L476.24006428571425,179.0883350115796L477.1506571428571,166.4989264036286L478.97184285714286,188.66546403021022L480.7930285714286,191.49158745199682L482.61421428571424,188.71984658950709L484.43539999999996,180.52672604509678L487.1671785714285,192.85415829890061L488.0777714285714,188.54398309989625L489.8989571428571,191.24721883418474L490.80955,179.1951069038052L491.72014285714283,177.89776290064682L492.6307357142857,173.36802460316198L493.5413285714285,171.80545840003123L495.36251428571427,172.65864724718352L496.2731071428571,181.1862676310707L497.1837,181.93912746120503L498.0942928571429,169.90064114099152L499.00488571428565,175.1770961151445L499.91547857142854,185.35981778299356L500.82607142857137,186.6947754144403L501.73666428571426,192.7397143077691L502.64725714285714,183.00207019042008L503.55785,189.2424912046852L504.46844285714286,182.4816187376655L505.37903571428564,185.73525234787922L507.2002214285714,183.78682442146103L508.11081428571424,174.01971331618762L509.02140714285713,175.2884749733361L509.932,185.64588993566943L510.8425928571428,186.3764974044425L511.7531857142857,190.2411679844059L512.6637785714286,185.23162545084938L513.5743714285715,180.26689064097397L514.4849642857142,186.47974481935492L515.3955571428571,186.14024703952785L516.30615,174.9733658328838L517.2167428571428,174.6460611221306L518.1273357142857,175.18470388037633L519.0379285714286,178.113328632013L519.9485214285714,176.90759458917142L520.8591142857143,179.53849766718005L521.7697071428571,183.19498760739958L522.6803,186.2070730700492L523.5908928571428,180.2071206673622L525.4120785714285,166.26177705554008L526.3226714285714,173.2722328020801L529.9650428571429,167.12558071098746L530.8756357142856,162.67528500128995L531.7862285714285,175.75636553149945L532.6968214285714,174.2624710821004L533.6074142857143,176.5339981390769L534.5180071428571,184.56984538875432L535.4286,195.82898126269822L536.3391928571428,197.91261124149227L538.1603785714285,191.6469281645731L539.0709714285714,200.52772897673347L539.9815642857143,201.38353929634505L542.7133428571428,194.14768027493724L543.6239357142857,196.56946030395846L545.4451214285714,196.72733116231927L548.1768999999999,185.9065401618634L549.0874928571428,184.44917162447896L549.9980857142857,171.01846616381243L550.9086785714286,179.3033700520625L551.8192714285715,191.78636578529057L552.7298642857143,199.1105692732869L553.6404571428571,188.04889356783264L554.5510499999999,177.36218973214167L555.4616428571428,168.9596942199155L556.3722357142857,177.93054094510578L557.2828285714286,183.92993559597318L559.1040142857142,190.39385377263056L560.0146071428571,181.50423450407402L560.9252,193.71707949720036L561.8357928571428,190.35031462718374L562.7463857142857,183.25372158294513L563.6569785714285,187.19592485908026L564.5675714285713,191.39673797537895L566.3887571428571,196.96633101254707L567.29935,195.5138211473823L568.2099428571429,188.7527716353536L569.1205357142857,196.8133282658458L574.5840928571429,200.75706358534097L576.4052785714285,204.50034981240034L577.3158714285714,194.29992436331034L578.2264642857142,196.17915980196906L579.1370571428571,191.4605175267274L580.04765,193.36239922705974L580.9582428571429,203.32002478339484L581.8688357142856,196.58107784687405L582.7794285714285,191.45860308586913L583.6900214285714,186.07144982921696L584.6006142857143,168.28424426500567L585.5112071428571,181.01574409356454L586.4218,177.52712921113215L587.3323928571427,163.60876431352162L588.2429857142856,184.04232994190613L589.1535785714285,182.38154019994593L590.0641714285714,182.30069124152098L590.9747642857143,188.78281552463673L592.79595,199.36966108900245L593.7065428571428,199.30940047277178L594.6171357142856,194.76147215588787L596.4383214285714,195.91455530538497L597.3489142857143,191.20210218080481L598.2595071428572,198.6498648562944L599.1700999999999,204.2121387385676L600.0806928571428,209.80467369635994L600.9912857142857,204.07825439262447L601.9018785714285,202.51420195155177L603.7230642857143,192.65391262324354L604.6336571428571,195.94468164415179L605.5442499999999,184.19822049719698L606.4548428571428,179.67289862383967L607.3654357142857,189.30397126286962L608.2760285714286,188.2701689971074L609.1866214285714,193.75963361695912L610.0972142857142,182.02271115562624L611.007807142857,171.0835488425571L611.9183999999999,177.77969468157755L612.8289928571428,191.1674967200832L613.7395857142857,200.09276252038936L615.5607714285715,205.51290012328423L616.4713642857142,197.3252648110902L617.3819571428571,190.31254293297027L618.2925499999999,183.9134415076631L619.2031428571428,192.1202182702099L620.1137357142857,192.57279701422894L621.0243285714286,199.53523212904483L621.9349214285714,206.4504655136749L622.8455142857142,207.8923339685252L623.7561071428571,203.87768026235406L624.6667,203.39435496355713L625.5772928571428,209.01629030064115L626.4878857142857,200.24550168130025L627.3984785714285,205.11049641021023L629.2196642857142,209.69297768681005L630.1302571428571,202.96737360959506L631.04085,200.40620232227593L632.8620357142856,186.9851045465657L633.7726285714285,201.25864383317165L634.6832214285714,199.2992855592795L635.5938142857142,187.81266315485408L637.415,188.80648560348368L638.3255928571427,188.0696686209632L639.2361857142857,198.87259287544444L640.1467785714285,174.3008852059147L641.0573714285714,178.6824271592201L641.9679642857143,179.55904962496166L642.8785571428572,185.6323219232333L644.6997428571427,178.57958291128705L646.5209285714285,187.9587777683463L647.4315214285714,197.46242895897186L648.3421142857143,189.4259430359361L651.0738928571428,192.5720501059626L654.7162642857143,195.012484634777L655.626857142857,196.92020301512483L656.53745,204.00929586584334L657.4480428571428,199.02221589979504L658.3586357142857,183.1260709029256L659.2692285714285,185.51736687790267L660.1798214285715,185.123474438017L661.0904142857142,188.97319607080547L663.8221928571428,191.4688441761823L664.7327857142857,199.59929623654432L665.6433785714286,206.34740363926258L666.5539714285715,215.99279616397956L668.375157142857,212.18071098400554L669.28575,213.22876224382762L670.1963428571428,208.49785824098612L672.0175285714286,203.9454389958288L672.9281214285713,202.34026739887628L673.8387142857142,197.20635302598615L674.7493071428571,206.38331108233535L675.6599,200.76730806196454L676.5704928571428,210.41063144245578L677.4810857142858,211.1100004758765L678.3916785714285,216.45075714268268L679.3022714285713,210.54468240545975L680.2128642857143,199.87950628523106L681.1234571428571,203.0765022547488L682.03405,207.92917798527745L682.9446428571428,196.68332853060164L683.8552357142858,199.1978430517983L684.7658285714285,185.9987007420344L685.6764214285713,190.66583708769576L688.4082,198.53127508668L689.3187928571429,199.03166879599033L691.1399785714285,195.45195181599104L692.0505714285713,203.71622930425906L692.9611642857143,210.75788930629793L693.8717571428571,205.34088610753477L694.7823500000001,210.8522174337212L695.6929428571428,209.57819657794852L696.6035357142856,209.66278046531806L697.5141285714285,209.4112214336594L698.4247214285714,215.79311640201806L699.3353142857143,200.04769530379056L700.245907142857,192.98371356417704L702.0670928571428,190.54447951728088L702.9776857142856,197.81106192358723L703.8882785714286,195.90666634731525L704.7988714285714,198.46714550789014L705.7094642857143,193.29085384330642L706.620057142857,195.35500212026528L707.53065,209.61132230766353L708.4412428571428,215.53003919367632L709.3518357142856,205.56353858259104L710.2624285714286,198.489650184791L711.1730214285714,197.3857611864094L712.0836142857142,200.06094659860636L712.9942071428571,202.55980556306662L713.9048,210.4575199520434L714.8153928571428,209.69921964024573L715.7259857142856,203.1829623318617L716.6365785714286,208.66995923143054L717.5471714285713,212.04626956833258L718.4577642857143,207.96881548913032L719.3683571428571,204.79557490558454L721.1895428571428,206.64575623995677L723.0107285714286,200.74478417948848L724.8319142857143,218.12008749434926L727.5636928571429,216.85637211197366L728.4742857142857,209.1601004504785L729.3848785714285,207.86918241403254L730.2954714285713,203.22111086023898L731.2060642857143,220.49066405876306L732.1166571428571,215.49285989632503L733.0272499999999,219.2885593749898L733.9378428571429,213.81604242192608L734.8484357142856,204.16647303621116L735.7590285714285,217.50410301399313L736.6696214285714,202.4248082096105L737.5802142857143,194.6834402951434L738.4908071428571,203.36124130921573L741.2225857142856,201.98939393065575L742.1331785714286,200.75130083025815L743.0437714285714,197.59544498241738L744.8649571428571,199.38110363195415L745.77555,200.99691027230068L746.6861428571428,193.85925255314137L747.5967357142856,193.10293209609765L748.5073285714286,204.6845092627846L749.4179214285714,195.65163398107543L750.3285142857142,211.019790827159L751.2391071428572,202.55119367773767L752.1496999999999,200.19455410442018L753.9708857142856,200.7870740616397L754.8814785714286,205.1220172777221L755.7920714285714,215.13910995033058L756.7026642857141,211.27886145774525L757.6132571428572,217.41549532094004L759.4344428571428,218.95161763416766L760.3450357142857,223.68871108345414L761.2556285714286,214.17047616036072L762.1662214285714,196.76043149346907L763.0768142857141,194.08755907127144L763.9874071428571,208.78143701975873L764.8979999999999,206.9922369243224L765.8085928571429,213.74935795793053L766.7191857142857,211.41401003556916L767.6297785714285,213.29364448045175L768.5403714285713,206.64533053192187L769.4509642857142,215.75932761938984L770.3615571428571,209.3954693908191L771.2721499999999,194.07312029210905L773.0933357142857,205.5854689723741L774.0039285714284,220.44427178481163L774.9145214285714,210.44445631014668L775.8251142857142,207.17814302508452L776.7357071428571,208.65828650632153L777.6462999999999,208.17688092850833L778.5568928571429,219.59445809282772L779.4674857142857,215.74452249978725L782.1992642857142,215.6919087873384L783.1098571428571,222.35165932515173L784.9310428571429,225.2297546967203L785.8416357142856,215.4641697290143L786.7522285714285,204.30536167517906L787.6628214285714,212.80244464990852L788.5734142857142,217.00930397699688L789.4840071428572,220.14015335732947L791.3051928571427,220.84479850169566L792.2157857142856,210.12975463054505L793.1263785714285,213.10142807234482L794.0369714285714,209.81943929236624L794.9475642857142,188.81875882769518L795.8581571428572,188.94172712102468L796.76875,195.85149274429637L797.6793428571427,191.7370533297119L799.5005285714285,194.80707056222306L800.4111214285714,202.72961883186068L801.3217142857143,194.60065198802215L802.2323071428572,204.58801442899264L803.1428999999999,209.10256262134288L804.0534928571427,204.91286908692584L804.9640857142857,207.08846144739664L805.8746785714285,215.39833006777687L806.7852714285714,219.17189048539592L807.6958642857143,224.61821144706602L808.606457142857,211.7094311349785L809.5170499999999,217.4448450078485L810.4276428571428,220.44592794596653L811.3382357142857,221.56814606380166L812.2488285714285,200.62236949438872L813.1594214285715,218.22891369542495L814.0700142857143,216.52339801538596L814.980607142857,217.226667051605L815.8912,219.67085568612313L816.8017928571428,228.45266010764536L817.7123857142857,221.7754535043436L818.6229785714285,221.83046217049346L819.5335714285715,221.90714285245647L821.354757142857,224.2871929166979L822.26535,217.1139833485047L823.1759428571428,218.17075836390015L824.0865357142857,220.65824039715383L824.9971285714286,215.28214043937834L825.9077214285714,216.0717747185392L826.8183142857142,213.55611666284577L827.728907142857,210.87981928731546L829.5500928571428,224.02758666780912L830.4606857142858,226.2704080754955L831.3712785714285,209.66446946349376L832.2818714285713,227.942439694921L833.1924642857142,225.8597661612748L834.1030571428571,221.765307626624L835.9242428571428,213.85375402659125L836.8348357142858,219.46289886707038L837.7454285714285,219.540977732384L838.6560214285713,220.70289605024087L840.4772071428571,221.2447664508976L841.3878,214.9676867228602L842.2983928571427,215.3977605224761L845.0301714285713,224.61393686062766L845.9407642857143,218.28701093749208L846.8513571428571,209.7576362368822L847.76195,201.3267467485285L848.6725428571428,206.7446961621294L849.5831357142857,206.09442400454577L850.4937285714285,204.19646522712168L851.4043214285713,196.6256218511549L852.3149142857143,198.21819741479678L853.225507142857,211.18498196871354L854.1361,209.1705554346518L855.0466928571428,212.86105902017812L855.9572857142856,213.97050214720758L857.7784714285714,219.12531365998385L858.6890642857143,206.41170050530314L860.51025,208.42803552048613L861.4208428571428,222.31380881248242L862.3314357142856,223.04960004614784L863.2420285714286,211.17609551624653L865.0632142857143,205.83423861310598L865.973807142857,219.43081889418195L866.8844,219.70163623611586L867.7949928571428,225.63330074024472L869.6161785714286,230.51005250437422L871.4373642857142,227.93827339543918L873.25855,221.5974367411972L874.1691428571428,226.5749510855699L875.0797357142856,227.02353903837349L875.9903285714286,216.34756187908258L876.9009214285713,226.4167910713697L880.5432928571428,223.64992896906995L881.4538857142857,231.81188919062888L882.3644785714285,226.56809317121193L883.2750714285713,227.5084302875357L884.1856642857143,229.02290943878631L886.0068499999999,229.0059684760436L886.9174428571429,227.34507738632345L887.8280357142856,229.8081968699836L888.7386285714285,217.9340190753307L889.6492214285713,228.82813564628157L890.5598142857143,223.67632499152296L891.4704071428571,227.7445113737218L892.3809999999999,234.46442353003218L893.2915928571429,221.48211750550863L894.2021857142856,219.68786693312998L896.0233714285714,214.4529307764666L896.9339642857143,218.9259310026107L897.8445571428571,221.6263333415471L898.7551499999998,227.9521629813601L899.6657428571428,217.43801760097082L900.5763357142856,218.3687331105455L901.4869285714286,227.3818886354675L902.3975214285714,220.46659310907785L903.3081142857142,217.95343548506892L904.218707142857,224.69644164115425L905.1293,219.7704315964594L906.0398928571428,219.35904914642654L906.9504857142856,221.2038241029101L907.8610785714286,215.31186765434248L908.7716714285714,216.7099251240605L909.6822642857142,221.63353246093476L910.5928571428572,226.06564780855587L912.4140428571428,220.73724921813255L913.3246357142856,224.39057202202468L914.2352285714286,231.79004460014337L915.1458214285714,210.7628270532932L916.0564142857141,223.95545651592286L916.9670071428571,214.7888230864851L917.8775999999999,212.14860703853654L918.7881928571428,209.8365489501231L919.6987857142857,210.59995139589745L920.6093785714286,221.5438712117126L921.5199714285714,217.53488718134466L922.4305642857141,215.7418040434259L924.2517499999999,219.51423685549125L925.1623428571429,216.6940709280874L926.0729357142857,223.967118881816L926.9835285714285,222.0498990432467L928.8047142857142,214.3044397661713L929.7153071428571,230.82207253453896L930.6258999999999,232.50521703885656L931.5364928571429,225.66069573060665L932.4470857142857,229.67815211651322L933.3576785714284,220.2038676395273L935.1788642857142,216.23884586419197L936.0894571428571,217.46813227787928L937.9106428571429,218.60481883916447L938.8212357142856,224.93714211185687L939.7318285714284,226.61728384077497L940.6424214285714,234.4122791587111L941.5530142857142,236.1062054245947L942.4636071428571,229.064110827999L944.2847928571429,240.315594102476L946.1059785714285,239.07887259455558L948.8377571428572,229.83880129356407L949.74835,215.76756557762155L950.6589428571427,215.7284595158072L951.5695357142856,218.80973743715114L953.3907214285714,207.78310269307036L954.3013142857142,217.21865578407608L955.2119071428572,227.3947730476532L957.0330928571427,224.32897514789542L957.9436857142857,212.21140610986492L958.8542785714285,221.6643386531683L959.7648714285714,228.1398053466566L961.5860571428572,224.57263936396168L962.4966499999999,231.57078105387524L963.4072428571427,234.00133005486387L964.3178357142857,229.11134305421385L965.2284285714285,216.91164291396066L966.1390214285714,220.0852517306466L967.0496142857143,209.53328945157884L967.960207142857,218.8333328719017L968.8707999999999,219.7204018804477L969.7813928571428,218.49714968937909L970.6919857142857,215.79572041236327L971.6025785714285,225.9615231150565L973.4237642857142,228.4504015084611L975.24495,223.61496021667162L976.1555428571428,225.3697530676069L977.9767285714285,231.34877988989007L978.8873214285715,236.51325602707178L979.7979142857142,226.40318374262398L980.708507142857,228.281760727919L981.6191,213.2172751698237L982.5296928571428,223.05505517562275L983.4402857142857,226.6136807736161L984.3508785714286,225.29371937134283L985.2614714285714,224.63594860147484L986.1720642857142,214.62589552587895L987.082657142857,221.621078616897L987.99325,217.89613246710286L989.8144357142858,224.91397397393692L990.7250285714285,230.2853883336467L991.6356214285713,240.69465341153636L992.5462142857142,231.39034387459094L993.4568071428571,233.60465128713687L994.3674,238.0443985014787L996.1885857142858,235.83556072709743L998.0097714285713,238.4891598361598L998.9203642857143,240.84625419902005L1000.74155,243.3821635539961L1001.6521428571427,240.55011861894323L1003.4733285714285,241.0191309533941L1004.3839214285713,246.11926940872831L1005.2945142857143,236.1713305014048L1006.2051071428571,231.15235681519948L1008.0262928571428,224.05748680642867L1008.9368857142857,233.41005404836906L1009.8474785714285,242.2541658761917L1011.6686642857143,239.34293946521393L1012.579257142857,234.56784909306114L1013.48985,229.4744609495291L1014.4004428571428,229.68220436574745L1016.2216285714285,217.20312235952457L1017.1322214285714,214.5007632744374L1018.0428142857143,206.8680716378726L1018.953407142857,209.9676698817752L1020.7745928571428,221.20260147297034L1021.6851857142856,212.690650201104L1022.5957785714286,225.81995626167173L1023.5063714285714,236.9915522061331L1024.4169642857144,234.65866137877362L1025.3275571428571,235.57778857550178L1026.23815,240.3012732440302L1028.0593357142857,247.30735831404144L1029.8805214285712,243.61154305007705L1030.7911142857142,234.27845378259804L1031.701707142857,235.67931421124928L1032.6123,235.36756433858866L1033.5228928571428,234.93025908359522L1034.4334857142856,224.07463948421855L1035.3440785714286,228.0797984808277L1036.2546714285713,219.63685333189906L1037.1652642857143,215.24483998094527L1038.075857142857,224.2377700655134L1039.8970428571429,226.1748287110609L1040.8076357142857,223.45353959972158L1041.7182285714287,233.60354269727765L1042.6288214285714,226.2012141983789L1044.450007142857,228.17609973794708L1045.3606,224.55179945258192L1046.2711928571428,235.68236578183112L1047.1817857142855,237.21106825278244L1048.0923785714285,241.8788724899652L1049.0029714285713,246.83598831655755L1050.824157142857,241.24848329044684L1051.7347499999998,240.83943966637435L1052.6453428571429,231.82377500301828L1053.5559357142856,223.599977469243L1054.4665285714286,238.55941924798333L1058.1089,235.60576620011236L1059.0194928571427,240.40748641078892L1059.9300857142857,239.45529652050269L1060.8406785714285,232.04803173489054L1061.7512714285713,224.92642043677975L1062.661864285714,241.13459623842246L1063.572457142857,244.37276321642878L1064.4830499999998,228.80412129159737L1065.3936428571428,225.1955346947668L1066.3042357142856,228.51079396818625L1067.2148285714286,229.5825672621402L1068.1254214285714,222.79411612599327L1069.0360142857141,233.18069704859994L1069.9466071428571,225.72176472240412L1070.8572,235.6973714017494L1071.767792857143,230.43513276777406L1072.6783857142857,234.33591424883448L1073.5889785714285,242.98638632870342L1074.4995714285715,237.11002109334842L1075.4101642857142,233.29631777635797L1076.320757142857,234.89770333487738L1077.2313499999998,246.55655791472765L1078.1419428571428,237.41568379468544L1079.0525357142856,235.91170582691922L1079.9631285714286,233.14319478881413L1081.7843142857141,245.6566606486562L1083.6055,238.09417254178064L1084.516092857143,231.2227703896066L1085.4266857142857,240.60200110476615L1086.3372785714284,236.14205773712038L1087.2478714285714,230.9966498705199L1089.0690571428572,215.59514685824217L1090.8902428571428,232.81124296697794L1091.8008357142855,231.434654733019L1092.7114285714285,233.13083697585876L1093.6220214285713,231.99998746650584L1095.443207142857,229.20622188351848L1096.3537999999999,217.73853505553186L1097.2643928571429,227.1153523796879L1098.1749857142856,221.12652448261275L1099.0855785714284,224.8786564197808L1101.8173571428572,230.66004276732622L1102.72795,231.03776400363455L1105.4597285714285,237.24383443937307L1106.3703214285713,244.53744607177737L1107.2809142857143,245.61377377812485L1110.0126928571428,241.66660114827405L1110.9232857142856,235.61062294365556L1112.7444714285714,235.8924804843759L1113.6550642857142,236.94808507068726L1114.5656571428572,226.48374096813063L1115.47625,229.3142691657678L1116.3868428571427,230.29435702894543L1117.2974357142857,240.0493409140969L1118.2080285714285,242.39470673823743L1119.1186214285715,236.1096002234482L1120.0292142857143,238.40086673936028L1120.939807142857,227.97955705667005L1122.7609928571428,230.7456400510339L1123.6715857142856,238.66857593158886L1124.5821785714286,241.0765404874087L1126.4033642857141,243.093474234581L1127.313957142857,226.96676895346644L1128.22455,229.45519559577943L1129.1351428571427,234.05294526216886L1130.0457357142857,232.2651767527908L1130.9563285714285,239.358808508268L1131.8669214285715,238.91198470637264L1132.7775142857142,241.9427552517954L1133.688107142857,241.17083452622313L1134.5987,233.0844206838621L1135.5092928571428,232.7977586405762L1137.3304785714286,250.46720859660434L1138.2410714285713,246.5602075174673L1139.1516642857143,238.70356282086513L1140.062257142857,250.06672999853694L1140.9728499999999,240.72752099987744L1141.8834428571427,238.73233169172335L1142.7940357142857,235.10228702637033L1143.7046285714284,231.51639057524488L1144.6152214285714,235.1722160954922L1145.5258142857142,242.1621315794974L1146.436407142857,240.79715346800026L1147.347,242.02450150851453L1148.2575928571428,241.604478866482L1149.1681857142858,244.60478479601394L1150.9893714285713,244.89857821427256L1151.8999642857143,245.49142171002907L1152.810557142857,249.8334167871325L1153.72115,250.13917911192465L1154.6317428571429,252.0517693527978L1155.5423357142856,245.48588635733373L1156.4529285714284,245.54133388525634L1160.0953,245.44017665759554L1161.0058928571427,245.72155811593433L1161.9164857142857,244.5146628094047L1162.8270785714285,243.69702663554725L1164.6482642857143,236.69938949962838L1165.558857142857,229.97702167165508L1166.46945,227.7061804308428L1167.3800428571428,233.74662768685423L1168.2906357142858,248.30136421229602L1170.1118214285714,248.49152625147198L1171.0224142857141,229.96610598888216L1171.9330071428572,231.40520054177173L1172.8436,241.17077273771602L1173.7541928571427,242.58563724544902L1174.6647857142855,233.28300006918465L1175.5753785714285,215.9546872719071L1176.4859714285712,229.21138662361747L1177.3965642857142,241.9854018167475L1178.307157142857,243.5656202361476L1179.21775,244.66621837469881L1180.1283428571428,246.79981086822121L1181.0389357142856,248.2269923220382L1181.9495285714286,245.08967288615142L1182.8601214285713,237.63499320317408L1183.7707142857143,239.2187592611855L1184.6813071428571,241.76922063685333L1185.5919,238.98507346902414L1186.502492857143,239.9698843848355L1187.4130857142857,246.72739530155943L1189.2342714285712,245.5875470045202L1190.1448642857142,242.5889078738089L1191.055457142857,232.93006113241887L1192.8766428571428,236.13780825776323L1193.7872357142855,231.51966763998547L1194.6978285714285,236.4498032567828L1195.6084214285713,239.646229743238L1196.5190142857143,233.02428122119647L1197.429607142857,236.11335422847594L1198.3401999999999,235.02656051071833L1199.2507928571429,238.21381489367695L1201.0719785714286,235.50293973345407" style="fill: none;" fill="none"></path></g></g></g></g><g opacity="0.2"><g><g><g><path stroke="rgb(0, 119, 187)" stroke-width="2px" d="M115.64529285714286,-25.772161960601807L118.37707142857143,6.443772733211517L119.28766428571427,-12.783944338560104L120.19825714285714,21.615511000156403L121.10884999999999,15.663445115089417L122.01944285714285,40.27624663710594L123.84062857142857,37.41849911212921L124.75122142857141,51.17728990316391L125.66181428571429,20.611971884965897L126.57240714285713,-5.204214781522751L127.483,82.30128121376038L129.3041857142857,63.65735900402069L130.21477857142858,117.9805566072464L131.1253714285714,29.351884245872498L132.0359642857143,26.71651330590248L132.94655714285713,42.48697292804718L133.85715,50.09858322143555L135.6783357142857,57.819241404533386L136.58892857142857,69.3138239979744L138.4101142857143,75.00228238105774L139.32070714285715,66.0198004245758L140.2313,91.27584931254387L141.14189285714284,27.114938020706177L142.05248571428572,53.279587894678116L142.96307857142855,46.54120561480522L144.78426428571427,78.28858923912048L145.69485714285713,107.14928765594959L146.60545,72.26895985007286L147.51604285714285,91.07462328672409L148.4266357142857,62.63607707619667L149.33722857142857,83.90064087510109L150.24782142857143,122.03543704748154L151.1584142857143,98.38311311602592L152.06900714285715,84.01512426137924L152.97959999999998,101.69216175377369L153.89019285714286,77.83003610372543L155.71137857142855,78.42467379570007L156.6219714285714,73.1506649851799L157.53256428571427,67.1013234257698L158.44315714285713,54.30655878782272L160.26434285714285,114.4349793791771L161.17493571428568,124.00035497546196L162.08552857142857,86.09883454442024L162.99612142857143,109.323077917099L164.81730714285712,77.77413216233253L165.7279,86.58583250641823L167.5490857142857,96.90646049380302L168.45967857142855,137.1356267184019L169.37027142857144,111.33977387845516L170.28086428571427,120.62771384418011L171.19145714285713,96.48602624237537L172.10205,101.25219632685184L173.9232357142857,85.84775966405869L174.83382857142857,124.58503697812557L175.7444214285714,120.50434496998787L176.65501428571426,87.01723632216454L177.56560714285715,107.0846953690052L178.4762,102.2028027176857L179.38679285714284,99.12394595146179L181.20797857142858,82.24261727929115L182.1185714285714,103.17762945592403L183.02916428571427,123.14715099334717L183.93975714285713,126.88099917769432L184.85034999999996,135.06032314896584L185.76094285714285,135.0358211696148L186.6715357142857,100.62217158079147L187.58212857142854,133.1999610811472L189.4033142857143,68.96017876267433L190.31390714285715,129.35875479876995L191.22449999999998,78.99520379304886L192.13509285714284,115.21440987288952L193.95627857142856,77.59422567486763L194.86687142857141,90.39591845870018L195.77746428571427,88.68463826179504L196.68805714285713,74.20230683684349L197.59865,43.93123787641525L198.50924285714285,147.50042867660522L199.41983571428568,120.43030393123627L200.33042857142857,124.32193641364574L201.24102142857143,140.22408713400364L202.15161428571426,137.78937895596027L203.06220714285712,183.90548367798328L203.9728,107.22311747074127L204.88339285714287,131.4754160195589L205.7939857142857,124.46545605361462L206.70457857142856,134.71225422620773L208.52576428571427,111.83769915997982L209.43635714285713,130.28185983002186L212.1681357142857,155.64882946014404L213.07872857142857,118.95114478468895L214.89991428571426,164.9272784292698L215.81050714285715,140.71447876095772L217.63169285714284,124.92391061782837L219.45287857142858,109.77888514101505L220.36347142857142,98.5258864313364L221.27406428571427,134.16945089399815L222.18465714285713,117.32460764050484L223.09524999999996,126.87705633044243L224.00584285714285,121.03475649654865L225.82702857142854,137.35697534680367L226.7376214285714,122.26819176971912L227.6482142857143,118.68131321668625L228.55880714285715,130.5201908648014L230.37999285714284,113.1697619408369L231.29058571428573,124.28992894291878L232.20117857142856,117.94412751495838L234.02236428571427,133.89963340759277L234.9329571428571,120.58430027961731L235.84355,136.66799095273018L237.66473571428568,118.97487227618694L238.57532857142854,134.27892123162746L240.3965142857143,107.25527983903885L241.30710714285712,160.62149208784103L243.12829285714287,128.20258525013924L244.0388857142857,128.24040842056274L244.94947857142856,124.87949725985527L246.77066428571425,122.99138036370277L247.68125714285713,140.49712930619717L248.59185,108.59341178834438L250.41303571428568,123.33104257285595L251.32362857142857,145.0390640348196L252.23422142857143,98.90859608352184L253.14481428571426,107.31328193843365L254.966,106.841787815094L255.87659285714284,160.9166846126318L256.7871857142857,123.25914193689823L257.69777857142856,152.59914976358414L258.6083714285714,141.13122363388538L259.5189642857143,128.12430565059185L260.42955714285716,147.32836563885212L261.34015,144.9534338414669L262.2507428571428,122.8215281367302L264.0719285714286,132.7643187046051L264.98252142857143,122.66551811993122L267.7143,164.28503085672855L271.3566714285714,126.05055105686188L272.2672642857143,152.0716531276703L274.08844999999997,140.96042793989182L274.99904285714285,133.92761354148388L275.90963571428574,144.75478474795818L277.7308214285714,133.44260108470917L278.6414142857143,121.22801233828068L279.5520071428571,144.20654591917992L280.4626,144.16979295015335L281.37319285714284,156.56772409379482L284.10497142857145,136.66409035027027L285.0155642857143,132.46055048704147L285.9261571428571,130.21012817323208L286.83675,153.91784910857677L287.7473428571428,167.767283141613L288.6579357142857,126.40628036856651L289.56852857142854,163.2546381354332L290.47912142857143,177.8667455613613L291.38971428571426,123.02573946118355L292.30030714285715,146.921942576766L293.2109,144.17229947447777L294.1214928571428,144.15704910457134L295.9426785714286,149.11047627031803L296.8532714285714,168.44411511719227L297.76386428571425,104.09084920585155L299.58504999999997,162.11999934911728L300.49564285714285,178.92547045648098L301.4062357142857,128.14023193717003L302.3168285714286,202.8364451676607L303.2274214285714,155.20028834044933L304.1380142857143,127.71837544441223L305.0486071428571,161.48420114815235L306.86979285714284,124.73311905562878L307.7803857142857,116.70252491533756L309.6015714285714,134.94712118804455L310.5121642857143,167.89094772934914L311.4227571428571,169.859188914299L313.2439428571428,165.0602791160345L314.1545357142857,147.734521150589L315.06512857142855,127.1899916678667L315.97572142857143,167.64459018409252L316.88631428571426,158.46438851952553L317.7969071428571,141.86529730260372L318.7075,137.32988235354424L319.61809285714287,89.4981039762497L320.5286857142857,147.11769086122513L321.4392785714286,182.17417944967747L322.34987142857136,158.2639933079481L323.26046428571425,144.31493197381496L324.17105714285714,135.12093034386635L325.99224285714286,184.63798020780087L326.90283571428574,173.124781742692L327.8134285714285,187.89639142155647L328.7240214285714,157.09410828351974L330.5452071428571,148.13367810845375L331.4558,143.8591247498989L332.36639285714284,149.19757094979286L334.1875785714285,180.87242026627064L336.0087642857143,147.73104299604893L337.82995,157.55937834084034L338.7405428571429,112.09925074875355L339.65113571428566,147.8489341288805L340.56172857142855,156.89367082715034L341.4723214285714,145.15625108778477L343.29350714285715,169.71458499133587L344.2041,161.4461104273796L345.11469285714287,172.19597366452217L346.02528571428564,177.36318764090538L346.93587857142853,169.68670342862606L347.8464714285714,100.89877639710903L348.75706428571425,147.53619593381882L349.66765714285714,162.63645601272583L354.2206214285714,147.05216918885708L356.0418071428571,107.46772889792919L356.9524,170.4983666986227L358.7735857142857,147.50701886415482L359.68417857142856,169.36085526645184L360.5947714285714,174.44998678565025L361.5053642857143,171.1578783094883L362.41595714285717,151.4739456474781L363.32654999999994,166.95097294449806L364.2371428571428,176.32378269731998L365.14773571428566,161.78135101497173L366.05832857142855,180.6484383791685L366.96892142857143,131.2520396411419L367.87951428571427,144.0791356265545L370.6112928571428,167.01048177480698L371.5218857142857,163.40329755842686L372.43247857142853,159.78524234890938L373.3430714285714,170.76783214509487L374.2536642857143,153.7000349611044L376.07484999999997,138.29896380007267L376.9854428571428,146.27238665521145L377.8960357142857,162.60385711491108L378.8066285714286,188.03740453720093L379.7172214285714,188.55211508274078L380.6278142857143,154.52945512533188L381.53840714285707,148.7060950398445L382.44899999999996,137.44740736484528L383.35959285714284,173.3976126909256L384.2701857142857,106.44001168012619L385.18077857142856,173.4860451221466L386.09137142857145,158.15890234708786L387.0019642857142,162.46294257044792L387.9125571428571,184.780781686306L388.82314999999994,189.23586112260818L389.73374285714283,165.23172256350517L391.55492857142855,177.33601015806198L392.46552142857144,157.19277803599834L394.2867071428571,159.7152568101883L396.1078928571428,195.32346238195896L397.9290785714286,160.59596215188503L398.83967142857136,142.1813305914402L399.75026428571425,157.92127539217472L400.66085714285714,172.6701573729515L401.57144999999997,152.91521121561527L402.48204285714286,139.6369408518076L403.3926357142857,172.86021669209003L404.3032285714285,186.87691193819046L405.2138214285714,177.0444506853819L406.12441428571424,160.29110965132713L407.0350071428571,166.0500745922327L407.9456,204.39853084087372L408.85619285714284,193.03130221366882L409.76678571428573,176.49707083404064L410.6773785714285,157.39432793855667L411.5879714285714,136.65637363493443L412.4985642857143,184.03035928308964L413.4091571428571,181.65448401868343L414.31975,151.26320046186447L415.2303428571429,160.25679279863834L416.14093571428566,173.88159719109535L417.05152857142855,135.60163383185863L417.9621214285714,199.12218448519707L418.87271428571427,173.66538834571838L419.78330714285715,163.9549159705639L420.6939,169.36086934804916L421.6044928571429,162.245663523674L422.51508571428565,145.63164581358433L423.42567857142853,170.21028538048267L424.3362714285714,184.67629623413086L425.24686428571425,154.0529057085514L426.15745714285714,194.28039622306824L427.9786428571428,168.3498529046774L428.8892357142857,194.6413357257843L430.7104214285714,178.75298497080803L431.6210142857143,173.20694786310196L432.5316071428571,163.7278502136469L433.4422,179.12471097707748L434.3527928571428,181.21416655182838L435.2633857142857,152.3716615587473L436.17397857142856,107.0832449644804L437.9951642857143,186.61172729730606L438.90575714285717,187.84221951663494L440.72694285714283,187.16328938305378L441.63753571428566,188.43908210098743L442.54812857142855,184.3697680234909L443.45872142857144,176.14835415780544L444.36931428571427,120.0668156594038L446.19049999999993,183.4414668828249L447.1010928571428,147.91144233942032L448.0116857142857,180.98577712476254L448.92227857142854,165.50139923393726L451.6540571428571,175.63582625985146L453.4752428571428,169.29957215487957L454.3858357142857,220.92805896699429L456.2070214285714,179.66054391860962L457.1176142857143,146.47317615151405L458.02820714285707,178.63103833794594L459.84939285714285,197.043233782053L460.7599857142857,173.2083137780428L462.58117142857145,162.21212115883827L464.4023571428571,192.0497867166996L465.31294999999994,168.86936527490616L466.22354285714283,169.78520420193672L468.04472857142855,199.80493073165417L468.95532142857144,181.47205692529678L469.8659142857142,182.48445336520672L472.5976928571428,170.78320924937725L473.5082857142857,192.6763333082199L474.4188785714286,165.65826822817326L475.32947142857137,191.10686887800694L476.24006428571425,174.14034654200077L477.1506571428571,147.61481349170208L478.97184285714286,221.91527047008276L480.7930285714286,195.73077258467674L482.61421428571424,184.56223529577255L484.43539999999996,168.2370452284813L487.1671785714285,211.34530667960644L488.0777714285714,182.0787203013897L489.8989571428571,195.30207243561745L490.80955,161.11693900823593L491.72014285714283,175.9517468959093L492.6307357142857,166.57341715693474L493.5413285714285,169.461609095335L495.36251428571427,173.9384305179119L496.2731071428571,193.97769820690155L497.1837,183.0684172064066L498.0942928571429,151.84291166067123L499.00488571428565,183.09177857637405L499.91547857142854,200.63390028476715L500.82607142857137,188.6972118616104L501.73666428571426,201.8071226477623L502.64725714285714,168.39560401439667L503.55785,198.6031227260828L504.46844285714286,172.34031003713608L505.37903571428564,190.6157027631998L507.2002214285714,180.86418253183365L508.11081428571424,159.3690466582775L509.02140714285713,177.19161745905876L509.932,201.18201237916946L510.8425928571428,187.47240860760212L511.7531857142857,196.03817385435104L512.6637785714286,177.7173116505146L513.5743714285715,172.8197884261608L514.4849642857142,195.79902608692646L515.3955571428571,185.63100036978722L516.30615,158.22304402291775L517.2167428571428,174.1551040560007L518.1273357142857,175.99266801774502L519.0379285714286,182.50626575946808L519.9485214285714,175.09899352490902L520.8591142857143,183.48485228419304L521.7697071428571,188.6797225177288L522.6803,190.72520126402378L523.5908928571428,171.2071920633316L525.4120785714285,145.3437616378069L526.3226714285714,183.78791642189026L529.9650428571429,157.90560257434845L530.8756357142856,155.99984143674374L531.7862285714285,195.3779863268137L532.6968214285714,172.0216294080019L533.6074142857143,179.94128872454166L534.5180071428571,196.62361626327038L535.4286,212.71768507361412L536.3391928571428,201.03805620968342L538.1603785714285,182.24840354919434L539.0709714285714,213.84893019497395L539.9815642857143,202.66725477576256L542.7133428571428,183.2938917428255L543.6239357142857,200.2021303474903L545.4451214285714,196.96413744986057L548.1768999999999,169.67535366117954L549.0874928571428,182.2631188184023L549.9980857142857,150.87240797281265L550.9086785714286,191.73072588443756L551.8192714285715,210.5108593851328L552.7298642857143,210.09687450528145L553.6404571428571,171.45638000965118L554.5510499999999,161.33213397860527L555.4616428571428,156.35595095157623L556.3722357142857,191.38681103289127L557.2828285714286,192.9290275722742L559.1040142857142,200.08973103761673L560.0146071428571,168.1698056012392L560.9252,212.03634698688984L561.8357928571428,185.3001673221588L562.7463857142857,172.60883201658726L563.6569785714285,193.109229773283L564.5675714285713,197.697957649827L566.3887571428571,205.3207205682993L567.29935,193.33505634963512L568.2099428571429,178.61119736731052L569.1205357142857,208.9041632115841L574.5840928571429,206.67266656458378L576.4052785714285,210.1152791529894L577.3158714285714,178.99928618967533L578.2264642857142,198.99801295995712L579.1370571428571,184.3825541138649L580.04765,196.21522177755833L580.9582428571429,218.2564631178975L581.8688357142856,186.4726574420929L582.7794285714285,183.7748909443617L583.6900214285714,177.99071994423866L584.6006142857143,141.60343591868877L585.5112071428571,200.1129938364029L586.4218,172.2942068874836L587.3323928571427,142.73121696710587L588.2429857142856,214.69267838448286L589.1535785714285,179.89035558700562L590.0641714285714,182.17941780388355L590.9747642857143,198.5060019493103L592.79595,215.24992943555117L593.7065428571428,199.21900954842567L594.6171357142856,187.93957968056202L596.4383214285714,197.64418002963066L597.3489142857143,184.13342249393463L598.2595071428572,209.82150886952877L599.1700999999999,212.5555495619774L600.0806928571428,218.19347613304853L600.9912857142857,195.48862543702126L601.9018785714285,200.16812328994274L603.7230642857143,177.86347863078117L604.6336571428571,200.88083517551422L605.5442499999999,166.57852877676487L606.4548428571428,172.88491581380367L607.3654357142857,203.75058022141457L608.2760285714286,186.719465598464L609.1866214285714,201.99383054673672L610.0972142857142,164.41732746362686L611.007807142857,154.67480537295341L611.9183999999999,187.8239134401083L612.8289928571428,211.24919977784157L613.7395857142857,213.48066122084856L615.5607714285715,213.64310652762651L616.4713642857142,185.0438118427992L617.3819571428571,179.79346011579037L618.2925499999999,174.31478936970234L619.2031428571428,204.43038341403008L620.1137357142857,193.2516651302576L621.0243285714286,209.97888480126858L621.9349214285714,216.82331559062004L622.8455142857142,210.0551366508007L623.7561071428571,197.85569970309734L624.6667,202.6693670153618L625.5772928571428,217.44919330626726L626.4878857142857,187.08931875228882L627.3984785714285,212.40798850357533L629.2196642857142,216.56669960170984L630.1302571428571,192.8789674937725L631.04085,196.56444539129734L632.8620357142856,166.85345788300037L633.7726285714285,222.6689527630806L634.6832214285714,196.36024814844131L635.5938142857142,170.58272954821587L637.415,190.29721927642822L638.3255928571427,186.96444314718246L639.2361857142857,215.07697925716639L640.1467785714285,137.4433237016201L641.0573714285714,185.25474008917809L641.9679642857143,180.87398332357407L642.8785571428572,194.74223037064075L644.6997428571427,168.00047439336777L646.5209285714285,202.02757005393505L647.4315214285714,211.71790574491024L648.3421142857143,177.37121415138245L651.0738928571428,197.29121071100235L654.7162642857143,198.67313642799854L655.626857142857,199.78178058564663L656.53745,214.64293514192104L657.4480428571428,191.5415959507227L658.3586357142857,159.28185340762138L659.2692285714285,189.10431084036827L660.1798214285715,184.5326357781887L661.0904142857142,194.74777851998806L663.8221928571428,195.2123163342476L664.7327857142857,211.7949743270874L665.6433785714286,216.46956474334002L666.5539714285715,230.46088495105505L668.375157142857,206.46258321404457L669.28575,214.80083913356066L670.1963428571428,201.4015022367239L672.0175285714286,197.11681012809277L672.9281214285713,199.93251000344753L673.8387142857142,189.50548146665096L674.7493071428571,220.14874816685915L675.6599,192.3433035314083L676.5704928571428,224.87561651319265L677.4810857142858,212.15905402600765L678.3916785714285,224.46189214289188L679.3022714285713,201.6855702996254L680.2128642857143,183.88174210488796L681.1234571428571,207.87199620902538L682.03405,215.20819158107042L682.9446428571428,179.814554348588L683.8552357142858,202.96961483359337L684.7658285714285,166.19998727738857L685.6764214285713,197.66654160618782L688.4082,210.32943208515644L689.3187928571429,199.7822593599558L691.1399785714285,190.0823763459921L692.0505714285713,216.11264553666115L692.9611642857143,221.3203793093562L693.8717571428571,197.21538130939007L694.7823500000001,219.1192144230008L695.6929428571428,207.6671652942896L696.6035357142856,209.7896562963724L697.5141285714285,209.03388288617134L698.4247214285714,225.36595885455608L699.3353142857143,176.42956365644932L700.245907142857,182.38774095475674L702.0670928571428,186.8856284469366L702.9776857142856,208.71093553304672L703.8882785714286,193.0500729829073L704.7988714285714,202.3078642487526L705.7094642857143,185.52641634643078L706.620057142857,198.45122453570366L707.53065,230.99580258876085L708.4412428571428,224.40811452269554L709.3518357142856,190.61378766596317L710.2624285714286,187.8788175880909L711.1730214285714,195.72992768883705L712.0836142857142,204.07372471690178L712.9942071428571,206.30809400975704L713.9048,222.30409153550863L714.8153928571428,208.56176917254925L715.7259857142856,193.40857636928558L716.6365785714286,216.90045458078384L717.5471714285713,217.11073507368565L718.4577642857143,201.852634370327L719.3683571428571,200.0357140302658L721.1895428571428,209.42102824151516L723.0107285714286,191.89332608878613L724.8319142857143,244.18304246664047L727.5636928571429,214.9607990384102L728.4742857142857,197.61569295823574L729.3848785714285,205.93280535936356L730.2954714285713,196.24900352954865L731.2060642857143,246.39499385654926L732.1166571428571,207.996153652668L733.0272499999999,224.98210859298706L733.9378428571429,205.60726699233055L734.8484357142856,189.69211895763874L735.7590285714285,237.51054798066616L736.6696214285714,179.8058660030365L737.5802142857143,183.07138842344284L738.4908071428571,216.37794283032417L741.2225857142856,199.93162286281586L742.1331785714286,198.89416117966175L743.0437714285714,192.86166121065617L744.8649571428571,202.05959160625935L745.77555,203.4206202328205L746.6861428571428,183.15276597440243L747.5967357142856,191.968451410532L748.5073285714286,222.056875012815L749.4179214285714,182.10232105851173L750.3285142857142,234.0720260962844L751.2391071428572,189.84829795360565L752.1496999999999,196.6595947444439L753.9708857142856,201.67585399746895L754.8814785714286,211.62443210184574L755.7920714285714,230.1647489592433L756.7026642857141,205.4884887188673L757.6132571428572,226.6204461157322L759.4344428571428,221.25580110400915L760.3450357142857,230.79435125738382L761.2556285714286,199.8931237757206L762.1662214285714,170.64536449313164L763.0768142857141,190.07825043797493L763.9874071428571,230.82225394248962L764.8979999999999,204.30843678116798L765.8085928571429,223.88503950834274L766.7191857142857,207.91098815202713L767.6297785714285,216.11309614777565L768.5403714285713,196.67285960912704L769.4509642857142,229.43032325059175L770.3615571428571,199.84968204796314L771.2721499999999,171.08959664404392L773.0933357142857,222.85399199277163L774.0039285714284,242.73247600346804L774.9145214285714,195.4447330981493L775.8251142857142,202.27867309749126L776.7357071428571,210.87850172817707L777.6462999999999,207.45477256178856L778.5568928571429,236.72082383930683L779.4674857142857,209.96961911022663L782.1992642857142,215.61298821866512L783.1098571428571,232.3412851318717L784.9310428571429,229.54689775407314L785.8416357142856,200.81579227745533L786.7522285714285,187.56714959442616L787.6628214285714,225.54806911200285L788.5734142857142,223.31959296762943L789.4840071428572,224.8364274278283L791.3051928571427,221.90176621824503L792.2157857142856,194.05718882381916L793.1263785714285,217.55893823504448L794.0369714285714,204.89645612239838L794.9475642857142,157.31773813068867L795.8581571428572,189.12617956101894L796.76875,206.216141179204L797.6793428571427,185.5653942078352L799.5005285714285,199.41209641098976L800.4111214285714,214.61344123631716L801.3217142857143,182.4072017222643L802.2323071428572,219.56905809044838L803.1428999999999,215.87438490986824L804.0534928571427,198.62832878530025L804.9640857142857,210.3518499881029L805.8746785714285,227.86313299834728L806.7852714285714,224.8322311118245L807.6958642857143,232.7876928895712L808.606457142857,192.34626066684723L809.5170499999999,226.04796581715345L810.4276428571428,224.9475523531437L811.3382357142857,223.25147324055433L812.2488285714285,169.20370464026928L813.1594214285715,244.63872999697924L814.0700142857143,213.96512449532747L814.980607142857,218.28157060593367L815.8912,223.33713863790035L816.8017928571428,241.62536673992872L817.7123857142857,211.75964359939098L818.6229785714285,221.91297516971827L819.5335714285715,222.02216387540102L821.354757142857,227.8572680130601L822.26535,206.35416899621487L823.1759428571428,219.7559208869934L824.0865357142857,224.38946344703436L824.9971285714286,207.2179905027151L825.9077214285714,217.25622613728046L826.8183142857142,209.78262957930565L827.728907142857,206.86537322402L829.5500928571428,243.7492377385497L830.4606857142858,229.63464018702507L831.3712785714285,184.75556154549122L832.2818714285713,255.3593950420618L833.1924642857142,222.7357558608055L834.1030571428571,215.6236198246479L835.9242428571428,201.9864236265421L836.8348357142858,227.87661612778902L837.7454285714285,219.6580960303545L838.6560214285713,222.44577352702618L840.4772071428571,222.05757205188274L841.3878,205.55206713080406L842.2983928571427,216.0428712219L845.0301714285713,238.43820136785507L845.9407642857143,208.79662205278873L846.8513571428571,196.96357418596745L847.76195,188.6804125159979L848.6725428571428,214.87162028253078L849.5831357142857,205.11901576817036L850.4937285714285,201.34952706098557L851.4043214285713,185.26935678720474L852.3149142857143,200.60706076025963L853.225507142857,230.63515879958868L854.1361,206.14891563355923L855.0466928571428,218.39681439846754L855.9572857142856,215.63466683775187L857.7784714285714,226.8575309291482L858.6890642857143,187.34128077328205L860.51025,211.45253804326057L861.4208428571428,243.14246875047684L862.3314357142856,224.15328689664602L863.2420285714286,193.36583872139454L865.0632142857143,197.8214532583952L865.973807142857,239.8256893157959L866.8844,220.10786224901676L867.7949928571428,234.53079749643803L869.6161785714286,237.82518015056849L871.4373642857142,224.0806047320366L873.25855,212.0861817598343L874.1691428571428,234.04122260212898L875.0797357142856,227.6964209675789L875.9903285714286,200.33359614014626L876.9009214285713,241.52063485980034L880.5432928571428,219.49963581562042L881.4538857142857,244.05482952296734L882.3644785714285,218.7023991420865L883.2750714285713,228.91893596202135L884.1856642857143,231.2946281656623L886.0068499999999,228.9805570319295L886.9174428571429,224.85374075174332L887.8280357142856,233.50287609547377L888.7386285714285,200.12275238335133L889.6492214285713,245.16931050270796L890.5598142857143,215.9486090093851L891.4704071428571,233.84679094702005L892.3809999999999,244.54429176449776L893.2915928571429,202.0086584687233L894.2021857142856,216.99649107456207L896.0233714285714,206.60052654147148L896.9339642857143,225.63543134182692L897.8445571428571,225.67693684995174L898.7551499999998,237.44090744107962L899.6657428571428,201.66679953038692L900.5763357142856,219.7648063749075L901.4869285714286,240.9016219228506L902.3975214285714,210.0936498194933L903.3081142857142,214.18369904905558L904.218707142857,234.8109508752823L905.1293,212.38141652941704L906.0398928571428,218.74197547137737L906.9504857142856,223.97098653763533L907.8610785714286,206.4739329814911L908.7716714285714,218.8070113286376L909.6822642857142,229.01894346624613L910.5928571428572,232.71382082998753L912.4140428571428,212.7446513324976L913.3246357142856,229.87055622786283L914.2352285714286,242.8892534673214L915.1458214285714,179.22200073301792L916.0564142857141,243.74440070986748L916.9670071428571,201.03887294232845L917.8775999999999,208.18828296661377L918.7881928571428,206.36846181750298L919.6987857142857,211.74505506455898L920.6093785714286,237.9597509354353L921.5199714285714,211.52141113579273L922.4305642857141,213.05217933654785L924.2517499999999,225.17288607358932L925.1623428571429,212.46382203698158L926.0729357142857,234.87669081240892L926.9835285714285,219.17406928539276L928.8047142857142,202.68625085055828L929.7153071428571,255.5985216870904L930.6258999999999,235.0299337953329L931.5364928571429,215.39391376823187L932.4470857142857,235.70433669537306L933.3576785714284,205.99244092404842L935.1788642857142,210.29131320118904L936.0894571428571,219.31206189841032L937.9106428571429,220.30984868109226L938.8212357142856,234.43562702089548L939.7318285714284,229.13749643415213L940.6424214285714,246.10477213561535L941.5530142857142,238.64709482342005L942.4636071428571,218.50096893310547L944.2847928571429,257.1928190141916L946.1059785714285,237.22379033267498L948.8377571428572,215.97869434207678L949.74835,194.66071200370789L950.6589428571427,215.6698004230857L951.5695357142856,223.43165431916714L953.3907214285714,191.24315057694912L954.3013142857142,231.37198542058468L955.2119071428572,242.6589489430189L957.0330928571427,219.73027829825878L957.9436857142857,194.03505255281925L958.8542785714285,235.84373746812344L959.7648714285714,237.85300538688898L961.5860571428572,219.22189038991928L962.4966499999999,242.0679935887456L963.4072428571427,237.6471535563469L964.3178357142857,221.77636255323887L965.2284285714285,198.61209270358086L966.1390214285714,224.8456649556756L967.0496142857143,193.7053460329771L967.960207142857,232.7833980023861L968.8707999999999,221.05100539326668L969.7813928571428,216.66227140277624L970.6919857142857,211.74357649683952L971.6025785714285,241.21022716909647L973.4237642857142,232.18371909856796L975.24495,216.3617982789874L976.1555428571428,228.00194234400988L977.9767285714285,240.31732012331486L978.8873214285715,244.25997023284435L979.7979142857142,211.2380753159523L980.708507142857,231.09962620586157L981.6191,190.6205468326807L982.5296928571428,237.8117251843214L983.4402857142857,231.95161917060614L984.3508785714286,223.3137772679329L985.2614714285714,223.64929244667292L986.1720642857142,199.61081591248512L987.082657142857,232.11385325342417L987.99325,212.3087132424116L989.8144357142858,235.44073623418808L990.7250285714285,238.34250987321138L991.6356214285713,256.30855102837086L992.5462142857142,217.43387956917286L993.4568071428571,236.9261124059558L994.3674,244.70401932299137L996.1885857142858,232.52230406552553L998.0097714285713,242.46955849975348L998.9203642857143,244.38189574331045L1000.74155,247.1860275864601L1001.6521428571427,236.3020512163639L1003.4733285714285,241.7226494550705L1004.3839214285713,253.76947709172964L1005.2945142857143,221.24942214041948L1006.2051071428571,223.62389628589153L1008.0262928571428,213.4151817932725L1008.9368857142857,247.43890491127968L1009.8474785714285,255.52033361792564L1011.6686642857143,234.97609984874725L1012.579257142857,227.405213534832L1013.48985,221.834378734231L1014.4004428571428,229.9938194900751L1016.2216285714285,198.48449935019016L1017.1322214285714,210.44722464680672L1018.0428142857143,195.41903418302536L1018.953407142857,214.61706724762917L1020.7745928571428,238.05499885976315L1021.6851857142856,199.92272329330444L1022.5957785714286,245.51391535252333L1023.5063714285714,253.74894612282515L1024.4169642857144,231.1593251377344L1025.3275571428571,236.95647937059402L1026.23815,247.38650024682283L1028.0593357142857,257.8164859190583L1029.8805214285712,238.06782015413046L1030.7911142857142,220.2788198813796L1031.701707142857,237.7806048542261L1032.6123,234.89993952959776L1033.5228928571428,234.27430120110512L1034.4334857142856,207.79121008515358L1035.3440785714286,234.0875369757414L1036.2546714285713,206.9724356085062L1037.1652642857143,208.6568199545145L1038.075857142857,237.72716519236565L1039.8970428571429,229.08041667938232L1040.8076357142857,219.37160593271255L1041.7182285714287,248.82854734361172L1042.6288214285714,215.0977214500308L1044.450007142857,231.13842804729939L1045.3606,219.11534902453423L1046.2711928571428,252.37821527570486L1047.1817857142855,239.50412195920944L1048.0923785714285,248.88057884573936L1049.0029714285713,254.27166205644608L1050.824157142857,232.86722575128078L1051.7347499999998,240.22587423026562L1052.6453428571429,218.30027800798416L1053.5559357142856,211.26428116858006L1054.4665285714286,260.9985819160938L1058.1089,231.1752866283059L1059.0194928571427,247.61006672680378L1059.9300857142857,238.02701168507338L1060.8406785714285,220.9371345564723L1061.7512714285713,214.24400348961353L1062.661864285714,265.4468599408865L1063.572457142857,249.2300136834383L1064.4830499999998,205.45115840435028L1065.3936428571428,219.78265479952097L1066.3042357142856,233.48368287831545L1067.2148285714286,231.19022720307112L1068.1254214285714,212.61143942177296L1069.0360142857141,248.7605684325099L1069.9466071428571,214.53336623311043L1070.8572,250.6607814207673L1071.767792857143,222.54177481681108L1072.6783857142857,240.18708647042513L1073.5889785714285,255.96209444850683L1074.4995714285715,228.2954732403159L1075.4101642857142,227.57576280087233L1076.320757142857,237.29978167265654L1077.2313499999998,264.044839784503L1078.1419428571428,223.70437261462212L1079.0525357142856,233.6557388752699L1079.9631285714286,228.99042823165655L1081.7843142857141,264.42685943841934L1083.6055,226.75044038146734L1084.516092857143,220.91566716134548L1085.4266857142857,254.6708471775055L1086.3372785714284,229.45214268565178L1087.2478714285714,223.2785380706191L1089.0690571428572,192.49289233982563L1090.8902428571428,258.63538713008165L1091.8008357142855,229.36977238208055L1092.7114285714285,235.6751103401184L1093.6220214285713,230.3037132024765L1095.443207142857,225.0155735090375L1096.3537999999999,200.5370048135519L1097.2643928571429,241.18057836592197L1098.1749857142856,212.14328263700008L1099.0855785714284,230.5068543255329L1101.8173571428572,239.3321222886443L1102.72795,231.60434585809708L1105.4597285714285,246.55294009298086L1106.3703214285713,255.47786352038383L1107.2809142857143,247.228265337646L1110.0126928571428,235.7458422034979L1110.9232857142856,226.5266556367278L1112.7444714285714,236.3152667954564L1113.6550642857142,238.5314919501543L1114.5656571428572,210.78722481429577L1115.47625,233.56006146222353L1116.3868428571427,231.76448882371187L1117.2974357142857,254.68181674182415L1118.2080285714285,245.9127554744482L1119.1186214285715,226.68194045126438L1120.0292142857143,241.83776651322842L1120.939807142857,212.34759253263474L1122.7609928571428,234.89476454257965L1123.6715857142856,250.55297975242138L1124.5821785714286,244.68848732113838L1126.4033642857141,246.11887485533953L1127.313957142857,202.77671103179455L1128.22455,233.18783555924892L1129.1351428571427,240.94956976175308L1130.0457357142857,229.58352398872375L1130.9563285714285,249.99925614148378L1131.8669214285715,238.24174900352955L1132.7775142857142,246.4889110699296L1133.688107142857,240.01295343786478L1134.5987,220.9547999203205L1135.5092928571428,232.36776557564735L1137.3304785714286,276.97138353064656L1138.2410714285713,240.69970589876175L1139.1516642857143,226.91859577596188L1140.062257142857,267.1114807650447L1140.9728499999999,226.71870750188828L1141.8834428571427,235.7395477294922L1142.7940357142857,229.65722002834082L1143.7046285714284,226.1375458985567L1144.6152214285714,240.65595437586308L1145.5258142857142,252.64700480550528L1146.436407142857,238.74968630075455L1147.347,243.86552356928587L1148.2575928571428,240.97444490343332L1149.1681857142858,249.1052436903119L1150.9893714285713,245.3392683416605L1151.8999642857143,246.38068695366383L1152.810557142857,256.3464094027877L1153.72115,250.597822599113L1154.6317428571429,254.9206547141075L1155.5423357142856,235.63706186413765L1156.4529285714284,245.62450517714024L1160.0953,245.2884408161044L1161.0058928571427,246.14363030344248L1161.9164857142857,242.70431984961033L1162.8270785714285,242.4705723747611L1164.6482642857143,226.20293379575014L1165.558857142857,219.89346992969513L1166.46945,224.29991856962442L1167.3800428571428,242.80729857087135L1168.2906357142858,270.1334690004587L1170.1118214285714,248.77676931023598L1171.0224142857141,202.1779755949974L1171.9330071428572,233.56384237110615L1172.8436,255.81913103163242L1173.7541928571427,244.7079340070486L1174.6647857142855,219.3290443047881L1175.5753785714285,189.96221807599068L1176.4859714285712,249.09643565118313L1177.3965642857142,261.14642460644245L1178.307157142857,245.93594786524773L1179.21775,246.31711558252573L1180.1283428571428,250.00019960850477L1181.0389357142856,250.36776450276375L1181.9495285714286,240.38369373232126L1182.8601214285713,226.45297367870808L1183.7707142857143,241.5944083482027L1184.6813071428571,245.59491270035505L1185.5919,234.8088527172804L1186.502492857143,241.44710075855255L1187.4130857142857,256.8636616766453L1189.2342714285712,243.8777745589614L1190.1448642857142,238.090949177742L1191.055457142857,218.44179102033377L1192.8766428571428,240.9494289457798L1193.7872357142855,224.59245671331882L1194.6978285714285,243.8450066819787L1195.6084214285713,244.4408694729209L1196.5190142857143,223.0913584381342L1197.429607142857,240.74696373939514L1198.3401999999999,233.39636993408203L1199.2507928571429,242.99469646811485L1201.0719785714286,231.43662699311972" style="fill: none;" fill="none"></path></g></g></g></g></g></g><g transform="translate(50, 378)" clip-path="url(#clip_1)"><clipPath id="clip_1"><rect width="1274" height="21"></rect></clipPath><g><g><line x1="0" y1="0" x2="0" y2="5" style="visibility: inherit;" fill="rgb(0, 0, 0)" stroke="rgb(204, 204, 204)" stroke-width="1px"></line><line x1="91.0592857142857" y1="0" x2="91.0592857142857" y2="5" style="visibility: inherit;" fill="rgb(0, 0, 0)" stroke="rgb(204, 204, 204)" stroke-width="1px"></line><line x1="182.1185714285714" y1="0" x2="182.1185714285714" y2="5" style="visibility: inherit;" fill="rgb(0, 0, 0)" stroke="rgb(204, 204, 204)" stroke-width="1px"></line><line x1="273.17785714285714" y1="0" x2="273.17785714285714" y2="5" style="visibility: inherit;" fill="rgb(0, 0, 0)" stroke="rgb(204, 204, 204)" stroke-width="1px"></line><line x1="364.2371428571428" y1="0" x2="364.2371428571428" y2="5" style="visibility: inherit;" fill="rgb(0, 0, 0)" stroke="rgb(204, 204, 204)" stroke-width="1px"></line><line x1="455.2964285714286" y1="0" x2="455.2964285714286" y2="5" style="visibility: inherit;" fill="rgb(0, 0, 0)" stroke="rgb(204, 204, 204)" stroke-width="1px"></line><line x1="546.3557142857143" y1="0" x2="546.3557142857143" y2="5" style="visibility: inherit;" fill="rgb(0, 0, 0)" stroke="rgb(204, 204, 204)" stroke-width="1px"></line><line x1="637.415" y1="0" x2="637.415" y2="5" style="visibility: inherit;" fill="rgb(0, 0, 0)" stroke="rgb(204, 204, 204)" stroke-width="1px"></line><line x1="728.4742857142857" y1="0" x2="728.4742857142857" y2="5" style="visibility: inherit;" fill="rgb(0, 0, 0)" stroke="rgb(204, 204, 204)" stroke-width="1px"></line><line x1="819.5335714285715" y1="0" x2="819.5335714285715" y2="5" style="visibility: inherit;" fill="rgb(0, 0, 0)" stroke="rgb(204, 204, 204)" stroke-width="1px"></line><line x1="910.5928571428572" y1="0" x2="910.5928571428572" y2="5" style="visibility: inherit;" fill="rgb(0, 0, 0)" stroke="rgb(204, 204, 204)" stroke-width="1px"></line><line x1="1001.6521428571427" y1="0" x2="1001.6521428571427" y2="5" style="visibility: inherit;" fill="rgb(0, 0, 0)" stroke="rgb(204, 204, 204)" stroke-width="1px"></line><line x1="1092.7114285714285" y1="0" x2="1092.7114285714285" y2="5" style="visibility: inherit;" fill="rgb(0, 0, 0)" stroke="rgb(204, 204, 204)" stroke-width="1px"></line><line x1="1183.7707142857143" y1="0" x2="1183.7707142857143" y2="5" style="visibility: inherit;" fill="rgb(0, 0, 0)" stroke="rgb(204, 204, 204)" stroke-width="1px"></line><line x1="1274.83" y1="0" x2="1274.83" y2="5" style="visibility: inherit;" fill="rgb(0, 0, 0)" stroke="rgb(204, 204, 204)" stroke-width="1px"></line></g><g transform="translate(0, 8)"><text x="0" y="0" dx="0em" dy="0.95em" style="text-anchor: middle; visibility: hidden; font-family: &quot;Helvetica Neue&quot;, sans-serif; font-size: 12px; font-weight: 200;" fill="rgb(50, 49, 63)" stroke="none" stroke-width="1px">-100</text><text x="91.0592857142857" y="0" dx="0em" dy="0.95em" style="text-anchor: middle; visibility: inherit; font-family: &quot;Helvetica Neue&quot;, sans-serif; font-size: 12px; font-weight: 200;" fill="rgb(50, 49, 63)" stroke="none" stroke-width="1px">0</text><text x="182.1185714285714" y="0" dx="0em" dy="0.95em" style="text-anchor: middle; visibility: inherit; font-family: &quot;Helvetica Neue&quot;, sans-serif; font-size: 12px; font-weight: 200;" fill="rgb(50, 49, 63)" stroke="none" stroke-width="1px">100</text><text x="273.17785714285714" y="0" dx="0em" dy="0.95em" style="text-anchor: middle; visibility: inherit; font-family: &quot;Helvetica Neue&quot;, sans-serif; font-size: 12px; font-weight: 200;" fill="rgb(50, 49, 63)" stroke="none" stroke-width="1px">200</text><text x="364.2371428571428" y="0" dx="0em" dy="0.95em" style="text-anchor: middle; visibility: inherit; font-family: &quot;Helvetica Neue&quot;, sans-serif; font-size: 12px; font-weight: 200;" fill="rgb(50, 49, 63)" stroke="none" stroke-width="1px">300</text><text x="455.2964285714286" y="0" dx="0em" dy="0.95em" style="text-anchor: middle; visibility: inherit; font-family: &quot;Helvetica Neue&quot;, sans-serif; font-size: 12px; font-weight: 200;" fill="rgb(50, 49, 63)" stroke="none" stroke-width="1px">400</text><text x="546.3557142857143" y="0" dx="0em" dy="0.95em" style="text-anchor: middle; visibility: inherit; font-family: &quot;Helvetica Neue&quot;, sans-serif; font-size: 12px; font-weight: 200;" fill="rgb(50, 49, 63)" stroke="none" stroke-width="1px">500</text><text x="637.415" y="0" dx="0em" dy="0.95em" style="text-anchor: middle; visibility: inherit; font-family: &quot;Helvetica Neue&quot;, sans-serif; font-size: 12px; font-weight: 200;" fill="rgb(50, 49, 63)" stroke="none" stroke-width="1px">600</text><text x="728.4742857142857" y="0" dx="0em" dy="0.95em" style="text-anchor: middle; visibility: inherit; font-family: &quot;Helvetica Neue&quot;, sans-serif; font-size: 12px; font-weight: 200;" fill="rgb(50, 49, 63)" stroke="none" stroke-width="1px">700</text><text x="819.5335714285715" y="0" dx="0em" dy="0.95em" style="text-anchor: middle; visibility: inherit; font-family: &quot;Helvetica Neue&quot;, sans-serif; font-size: 12px; font-weight: 200;" fill="rgb(50, 49, 63)" stroke="none" stroke-width="1px">800</text><text x="910.5928571428572" y="0" dx="0em" dy="0.95em" style="text-anchor: middle; visibility: inherit; font-family: &quot;Helvetica Neue&quot;, sans-serif; font-size: 12px; font-weight: 200;" fill="rgb(50, 49, 63)" stroke="none" stroke-width="1px">900</text><text x="1001.6521428571427" y="0" dx="0em" dy="0.95em" style="text-anchor: middle; visibility: inherit; font-family: &quot;Helvetica Neue&quot;, sans-serif; font-size: 12px; font-weight: 200;" fill="rgb(50, 49, 63)" stroke="none" stroke-width="1px">1k</text><text x="1092.7114285714285" y="0" dx="0em" dy="0.95em" style="text-anchor: middle; visibility: inherit; font-family: &quot;Helvetica Neue&quot;, sans-serif; font-size: 12px; font-weight: 200;" fill="rgb(50, 49, 63)" stroke="none" stroke-width="1px">1.1k</text><text x="1183.7707142857143" y="0" dx="0em" dy="0.95em" style="text-anchor: middle; visibility: inherit; font-family: &quot;Helvetica Neue&quot;, sans-serif; font-size: 12px; font-weight: 200;" fill="rgb(50, 49, 63)" stroke="none" stroke-width="1px">1.2k</text><text x="1274.83" y="0" dx="0em" dy="0.95em" style="text-anchor: middle; visibility: hidden; font-family: &quot;Helvetica Neue&quot;, sans-serif; font-size: 12px; font-weight: 200;" fill="rgb(50, 49, 63)" stroke="none" stroke-width="1px">1.3k</text></g><line x1="0" y1="0" x2="1274.83" y2="0" fill="rgb(0, 0, 0)" stroke="rgb(204, 204, 204)" stroke-width="1px"></line></g></g></g></g></svg>